<svg id="Layer_1" data-name="Layer 1" xmlns="http://www.w3.org/2000/svg" viewBox="0 0 647.725 174.959"><defs><style>.cls-1{fill:#39a586;}</style></defs><title>ITWD Presentation</title><path class="cls-1" d="M328.212,170.919c106.1-1.5,181.907-24.124,231.122-54.338C608.6,86.337,631,48.658,631,17h4c0,33.558-23.631,72.332-73.571,102.99-49.989,30.69-126.558,53.419-233.157,54.928ZM7.417,8.332C9.1,7.248,9.1,7.247,9.1,7.248l0,0,.013.02.055.085c.05.077.127.193.23.347.205.309.516.771.932,1.376.833,1.21,2.085,2.991,3.758,5.261,3.345,4.541,8.369,11.036,15.063,18.828a414.531,414.531,0,0,0,60.14,57.005c53.36,41.323,133.137,82.243,238.92,80.745l.057,4c-106.914,1.514-187.55-39.859-241.426-81.582A418.476,418.476,0,0,1,26.118,35.775C19.353,27.9,14.267,21.327,10.868,16.714c-1.7-2.307-2.977-4.124-3.832-5.367-.428-.622-.75-1.1-.967-1.426q-.162-.245-.245-.372l-.064-.1-.017-.025,0-.008S5.737,9.416,7.417,8.332Zm624.166,7.254a2,2,0,0,1,2.829,0l12.727,12.728a2,2,0,1,1-2.828,2.829L633,19.829,621.684,31.142a2,2,0,1,1-2.829-2.828ZM328.24,172.919l-.028-2Z"/><circle class="cls-1" cx="12" cy="12" r="12"/></svg>