<svg id="Layer_1" data-name="Layer 1" xmlns="http://www.w3.org/2000/svg" viewBox="0 0 882.592 517.836"><defs><style>.cls-1{fill:none;stroke:#3d3d3d;stroke-miterlimit:10;}</style></defs><title>111</title><path class="cls-1" d="M378.383,224.872c5.209-3.535,11.326-9.3,9.093-22.7-3.721-22.326,5.581-52.093,83.721-43.907s164.092,56.372,209.3,106.046S664.313,376.5,606.266,393.8s-126.7,30.7-256.185-19.535S275.29,268.779,285.9,260.406C307.662,243.662,352.083,242.718,378.383,224.872Z"/><path class="cls-1" d="M309.258,184.282c8.086-5.487,14.819-14.44,11.354-35.233-5.776-34.655,8.663-80.862,129.956-68.155S705.284,168.4,775.46,245.506s-25.125,174.142-115.228,201-196.668,47.65-397.668-30.324S146.47,252.437,162.931,239.441C196.72,213.45,268.434,211.984,309.258,184.282Z"/><path class="cls-1" d="M236.982,139.653c10.662-7.235,17.946-19.038,13.377-46.453C242.744,47.508,261.782-13.414,421.7,3.34S757.536,118.711,850.061,220.375s-33.126,229.6-151.924,265.011-259.3,62.826-524.312-39.98S20.759,229.513,42.462,212.379C87.011,178.11,183.156,176.178,236.982,139.653Z"/></svg>