<svg width="160" height="80" viewBox="0 0 160 80" fill="none" xmlns="http://www.w3.org/2000/svg">
<g clip-path="url(#clip0)">
<path d="M12.7041 80C10.7085 80 8.61102 79.5814 7.11914 78.8351C4.84003 77.6949 1.56175 73.6604 3.72525 65.773C4.65011 62.3994 6.67048 57.96 8.26145 55.0546C9.03491 53.6418 9.27714 52.3034 9.21383 51.031C9.17529 52.4135 9.00739 53.9778 8.45138 54.1375C7.94215 54.2835 6.99803 53.8841 4.66938 48.7562C4.61433 48.6378 4.57854 48.558 4.56203 48.5249C1.43238 42.2486 0.994727 38.8557 0.124923 32.0975L0.0753769 31.7037C-0.210888 29.4785 0.367147 27.3441 1.70488 25.7028C2.91876 24.2101 4.9116 23.9678 6.67048 23.753C8.39357 23.5437 10.1772 23.3261 11.8425 22.5991C14.039 21.6379 15.019 19.6248 15.019 16.0666C15.019 14.4749 14.6859 12.5416 12.0875 11.6961C9.59093 10.8837 8.28622 7.74416 8.99087 4.23009C9.48908 1.71297 11.837 0 13.6647 0C13.6895 0 13.7115 0 13.7363 0C15.2419 0.0385555 16.2631 0.782127 16.698 2.1536C20.0864 -0.619643 23.7032 0.322214 26.5411 1.50917C28.1789 2.19491 30.6396 4.54405 30.6121 6.5214C30.6039 7.1135 30.4112 7.60095 30.1304 8.0526C30.2873 9.03577 30.4222 11.3381 30.0203 12.1698C29.6157 13.0097 29.6708 13.7671 29.7974 14.7475C29.9956 16.2925 29.4918 17.54 28.911 18.7848L28.8092 19.0051C28.4486 19.801 27.9036 21.0045 27.0145 21.1505C25.9218 21.3295 24.5317 20.4868 23.9867 20.1177C23.1087 19.5201 22.6683 19.1153 22.3903 18.7518C22.5719 19.9828 22.8362 21.492 23.2601 22.2851C23.8821 23.4555 24.9997 24.1881 26.676 24.5241C27.1935 24.6287 27.7715 24.6673 28.3826 24.7086C29.646 24.794 30.9534 24.8821 31.8893 25.5706C33.0564 26.4271 33.7308 28.319 33.7913 29.7429C33.9592 33.6067 33.8877 38.8695 32.0682 48.6075C31.8287 49.8881 30.4883 54.2614 28.7734 54.7268C29.2524 55.6164 29.9295 56.6822 30.8984 58.0591C36.654 66.2439 36.12 70.7907 35.2171 73.4979C33.8326 77.6454 30.6892 80.0303 26.8109 79.8788C26.2603 79.8568 25.1814 79.6227 24.039 79.3776C22.8197 79.1132 21.5618 78.8406 20.992 78.8406C20.3093 78.8406 18.066 79.2454 16.2603 79.5704C15.7401 79.664 15.2474 79.7521 14.818 79.8265C14.1491 79.9422 13.4335 80 12.7041 80ZM9.06244 48.1862C9.76984 50.3122 10.0534 52.6504 8.62479 55.2556C7.04482 58.139 5.04097 62.5426 4.12437 65.8832C2.03244 73.5117 5.14006 77.381 7.30632 78.466C9.24136 79.4327 12.371 79.8348 14.7492 79.4217C15.1758 79.3473 15.6713 79.2592 16.1888 79.1656C18.1046 78.8213 20.2736 78.4302 20.992 78.4302C21.603 78.4302 22.8857 78.7084 24.1271 78.9755C25.2006 79.2069 26.3126 79.4492 26.8274 79.4685C30.5103 79.6062 33.505 77.3314 34.8263 73.3685C35.7016 70.7467 36.208 66.3321 30.5598 58.2987C29.5194 56.8171 28.8065 55.688 28.3137 54.7489C27.543 54.5699 27.0503 53.1901 26.6457 51.8903C26.6072 51.7636 26.5714 51.6562 26.5439 51.568C26.0099 49.968 25.9933 47.9245 26.1558 46.5476C26.3622 44.7905 26.9402 43.0583 27.5706 41.5574C27.5816 41.5078 27.5953 41.4555 27.6063 41.4059C27.733 40.8661 27.8596 40.3263 27.9724 39.7866C28.1954 38.7318 28.556 37.454 29.3983 36.9445C29.5111 36.8756 29.7781 36.7131 29.957 36.8784C30.18 37.0849 30.0121 37.4429 29.3349 38.7841C28.9441 39.558 28.4404 40.5549 27.9642 41.6868C27.4715 43.7963 26.987 45.9775 27.276 48.2468C27.3614 48.9077 27.4137 49.4805 27.4605 49.9873C27.6036 51.5543 27.7027 52.6201 28.5752 54.3496C29.9295 54.1678 31.3471 50.2296 31.6636 48.5359C33.4775 38.8365 33.5491 33.6039 33.3812 29.7649C33.3234 28.4375 32.7096 26.6859 31.6471 25.9066C30.8076 25.2897 29.5634 25.2071 28.3578 25.1244C27.733 25.0831 27.1412 25.0418 26.5989 24.9317C24.818 24.5737 23.5739 23.7502 22.8995 22.4806C22.3655 21.4754 22.0902 19.5559 21.8921 18.1542C21.8728 18.0275 21.8563 17.9063 21.8398 17.7906C21.5838 17.3032 21.3994 16.6698 21.5618 16.4522C21.6085 16.3889 21.7104 16.3448 21.7902 16.3613C21.9278 16.3861 22.0132 16.5128 22.093 16.813C22.1398 17.014 22.1866 17.3032 22.2389 17.6612C22.2692 17.719 22.2994 17.7769 22.327 17.8319C22.6352 18.4378 22.8417 18.8371 24.2262 19.779C24.6198 20.0461 25.9851 20.9081 26.9567 20.7484C27.6284 20.6382 28.1376 19.5146 28.4431 18.8426L28.545 18.6168C29.0982 17.4271 29.5799 16.2429 29.3955 14.8053C29.2661 13.7891 29.2028 12.9354 29.657 11.9963C29.946 11.4014 29.9185 9.67469 29.7891 8.55382C29.657 8.72457 29.5194 8.88981 29.379 9.06055C29.2881 9.17071 29.1946 9.28362 29.101 9.39654C28.2339 10.4706 27.2403 11.4317 26.3016 12.1037C25.7429 12.503 25.319 12.8693 25.0107 13.1915C25.063 13.3567 25.096 13.522 25.1098 13.6817C25.1566 14.205 24.9859 14.6043 24.6666 14.7255C24.1877 14.9072 24.0033 14.6456 23.9592 14.5602C23.8051 14.2711 23.9592 13.7588 24.5317 13.1034C24.3363 12.682 23.9812 12.3213 23.494 12.2304C23.0234 12.1422 22.7206 12.5085 22.5829 12.7343C22.1591 13.4256 22.1013 14.6401 22.7426 15.4718C22.8114 15.5627 22.7949 15.6921 22.7041 15.761C22.6132 15.8298 22.4839 15.8133 22.415 15.7224C21.6388 14.7117 21.7407 13.3182 22.2306 12.5168C22.5609 11.9798 23.0481 11.7264 23.5711 11.8228C24.1629 11.9329 24.584 12.3213 24.8373 12.7812C25.1538 12.4672 25.5612 12.1257 26.0622 11.7677C26.9705 11.1178 27.9366 10.1842 28.7789 9.13766C28.8725 9.022 28.9661 8.90909 29.0597 8.79617C29.2937 8.51251 29.5166 8.24538 29.7038 7.96998C29.6515 7.75793 29.4148 7.61197 29.2221 7.52659C28.4046 7.16582 26.7971 7.19061 25.7952 7.80199C23.2133 9.38552 19.9983 11.3574 16.3594 22.3567C15.6328 24.5544 14.3281 33.1523 16.5466 41.4031C18.6633 49.2822 19.1808 56.3104 18.1238 62.8896C18.1046 63.0025 18 63.0796 17.8871 63.0603C17.7743 63.0411 17.6972 62.9364 17.7164 62.8235C18.7652 56.3021 18.2504 49.3291 16.1502 41.5106C13.9069 33.166 15.2336 24.4552 15.9713 22.2273C19.657 11.0847 22.9435 9.06882 25.5832 7.44948C26.709 6.75824 28.4624 6.73621 29.3927 7.14655C29.6377 7.2567 29.8276 7.39165 29.9515 7.55138C30.1084 7.23743 30.2047 6.90144 30.2103 6.51864C30.2323 4.77263 27.9449 2.54191 26.3925 1.89198C23.6262 0.735309 20.0946 -0.181762 16.8246 2.59975C17.455 5.61534 15.5392 10.4761 14.3363 11.261C13.7253 11.6603 13.3867 11.4207 13.2381 11.2417C12.338 10.1511 13.6785 5.19398 15.8172 2.98255C15.9989 2.79528 16.1805 2.61902 16.3649 2.45379C16.3594 2.43451 16.3539 2.41798 16.3512 2.39871C15.9878 1.11811 15.107 0.451651 13.7363 0.418603C12.0572 0.385555 9.84692 2.02967 9.39275 4.30996C8.74314 7.5624 9.95426 10.567 12.2141 11.3023C15.096 12.2386 15.4291 14.4693 15.4291 16.0666C15.4291 18.5865 15.041 21.6489 12.0049 22.9764C10.2873 23.7282 8.39082 23.9595 6.72002 24.1633C5.03822 24.3699 3.13346 24.6012 2.02418 25.9644C0.758008 27.5204 0.213004 29.5391 0.485506 31.6541L0.535052 32.0452C1.4021 38.7593 1.83701 42.1274 4.93637 48.3404C4.95289 48.3734 4.99142 48.4588 5.04923 48.5855C7.38339 53.7189 8.20089 53.7795 8.34127 53.7409C8.54771 53.6611 8.84224 52.4025 8.81196 49.9487C8.80645 49.4585 8.7514 48.8995 8.66057 48.2908C8.38807 47.4701 8.04675 46.6797 7.72195 45.9169C7.48248 45.3578 7.25402 44.8263 7.05859 44.3031C3.48853 34.7303 3.97849 34.4329 4.18768 34.3034C4.28402 34.2428 4.44367 34.2208 4.65286 34.4521C4.98592 34.8267 8.28897 43.0693 9.06244 48.1862ZM26.9485 44.5978C26.7751 45.2532 26.6402 45.9224 26.5604 46.5916C26.4035 47.9245 26.4172 49.8991 26.932 51.4331C26.9622 51.5212 26.9953 51.6341 27.0366 51.7636C27.1852 52.24 27.4962 53.2425 27.8788 53.8511C27.2678 52.4438 27.1742 51.4303 27.0448 50.0231C26.998 49.5191 26.9457 48.949 26.8632 48.2963C26.7008 47.0323 26.7723 45.8012 26.9485 44.5978ZM4.45193 34.9258C4.53725 35.6198 5.04648 37.7349 7.44394 44.1626C7.63662 44.6776 7.86233 45.2036 8.09905 45.7572C8.13483 45.8398 8.17062 45.9224 8.2064 46.005C7.14667 41.5408 5.01069 36.0577 4.45193 34.9258ZM29.5744 37.3163C28.9303 37.7376 28.611 38.7896 28.4073 39.7122C28.6055 39.3019 28.7954 38.9301 28.9633 38.5969C29.2083 38.1066 29.4616 37.6027 29.5744 37.3163ZM24.6749 13.566C24.4464 13.8635 24.3336 14.1003 24.3115 14.2628C24.3033 14.3289 24.3143 14.3564 24.317 14.3619C24.3253 14.3674 24.3859 14.3812 24.5152 14.3344C24.6474 14.2848 24.7217 14.0287 24.6914 13.712C24.6886 13.6652 24.6831 13.6156 24.6749 13.566ZM16.4558 2.91921C16.3374 3.02936 16.2218 3.14503 16.1035 3.26621C13.9124 5.53272 12.9105 10.2034 13.5463 10.9746C13.5904 11.0269 13.706 11.1673 14.0996 10.9112C15.0547 10.2916 16.9375 5.87421 16.4558 2.91921Z" fill="white"/>
<path d="M80.5451 7.15454V7.45197L80.3304 7.47676C79.6037 7.53183 78.9046 8.17626 78.5798 9.01347L72.7967 26.3745H72.337L65.3786 9.26959H65.3758L65.2354 8.85098C64.8583 7.98899 64.3216 7.6117 63.6224 7.50429V7.20687H68.3293L68.3816 7.47676L68.2797 7.49053L65.5024 7.50705C66.2016 7.61445 66.7411 7.99175 67.1154 8.85374L67.2118 9.12914L67.2558 9.27234H67.2723L73.1242 23.9537L77.8834 9.55325C78.2357 8.39383 77.7513 7.53459 76.675 7.47951L76.353 7.45472V7.1573H80.5451V7.15454Z" fill="white"/>
<path d="M88.5384 9.03842V24.1384C88.5384 24.9729 89.0503 25.5925 89.777 25.6448L89.9917 25.6724V25.9698H85.3372V25.6724L85.5519 25.6448C86.2785 25.5898 86.7905 24.9729 86.7905 24.1384V9.03842C86.7905 8.20397 86.2785 7.58432 85.5519 7.532L85.3372 7.50446V7.20703H89.9917V7.50446L89.777 7.532C89.0503 7.58432 88.5384 8.20397 88.5384 9.03842Z" fill="white"/>
<path d="M107.867 22.7669C107.735 23.6537 107.52 24.8902 107.357 25.7797L107.33 25.967H95.3591V25.6723L95.5738 25.6448C96.3005 25.5925 96.8152 24.9728 96.8152 24.1384V9.03835C96.8152 8.20665 96.3033 7.58426 95.5738 7.53193L95.3591 7.50715V7.20972H100.014V7.50715L99.9889 7.53193L99.7742 7.55947C99.0475 7.61455 98.5356 8.23144 98.5356 9.06589V24.5515C98.4557 25.4878 97.6217 25.5622 97.6217 25.5622H98.5356V25.5649H104.024C105.18 25.5649 106.446 24.7029 107.063 23.5435L107.547 22.6292C107.545 22.6319 107.759 22.7146 107.867 22.7669Z" fill="white"/>
<path d="M124.437 22.7669C124.305 23.6537 124.09 24.8902 123.928 25.7797L123.901 25.967H111.93V25.6723L112.144 25.6448C112.871 25.5925 113.386 24.9728 113.386 24.1384V9.03835C113.386 8.20665 112.874 7.58426 112.144 7.53193L111.93 7.50715V7.20972H116.584V7.50715L116.559 7.53193L116.345 7.55947C115.618 7.61455 115.106 8.23144 115.106 9.06589V24.5515C115.026 25.4878 114.192 25.5622 114.192 25.5622H115.106V25.5649H120.595C121.751 25.5649 123.017 24.7029 123.634 23.5435L124.118 22.6292C124.115 22.6319 124.33 22.7146 124.437 22.7669Z" fill="white"/>
<path d="M144.283 25.6723V25.9697H139.199L139.147 25.6723L139.604 25.6448C140.438 25.5897 140.842 24.9728 140.518 24.1384L138.687 19.2666H131.343L129.703 23.9759C129.488 24.9177 129.945 25.5925 130.886 25.6448L131.208 25.6723V25.9697H127.118V25.6723C127.98 25.5649 128.651 25.1876 129.056 24.3256L135.271 6.77734H135.701L142.453 24.2733C142.912 25.2427 143.477 25.6723 144.283 25.6723ZM138.527 18.837L134.897 9.03835L131.478 18.837H138.527Z" fill="white"/>
<path d="M69.155 58.7199V59.0174H64.528V58.6951L64.6078 58.7227L64.8225 58.6951C65.4666 58.6401 65.951 58.103 66.0061 57.376L65.4418 41.604L58.2329 59.1523H57.8035C55.3565 53.581 52.9342 47.9822 50.4872 42.3834L49.9477 56.8638C49.9202 57.8855 50.6193 58.6401 51.6433 58.6951L52.0204 58.7227V59.0201H47.9026V58.7227L48.1173 58.6951C48.8164 58.6401 49.3284 57.9956 49.3807 57.1887L49.945 41.8739C49.8899 41.1744 49.4082 40.6346 48.7614 40.5823L48.5467 40.5548V40.2573H51.3433L58.5522 57.0786L58.5797 57.1061L65.3317 40.2573H68.3182V40.5548L68.131 40.5823C67.4319 40.6374 66.9475 41.2543 66.975 42.0887L67.6466 57.3237C67.7264 58.0783 68.2659 58.6428 68.9375 58.6951L69.155 58.7199Z" fill="white"/>
<path d="M86.2592 56.0319C86.1271 56.8636 85.9096 58.0781 85.7748 58.9098H85.75L85.7225 59.0998H73.7792V58.8024L73.9939 58.7776C74.7178 58.7225 75.2325 58.1029 75.2325 57.2712V42.1712C75.2325 41.334 74.7205 40.7171 73.9939 40.6647L73.7792 40.6372V40.3425H85.5904V43.4104H85.4004L85.2132 42.9808C84.6462 41.714 83.2755 40.7749 81.957 40.7749H76.9529V40.7887H76.0528C76.0528 40.7887 76.818 40.8548 76.9529 41.681V48.8743H81.0431C82.1194 48.8743 83.1709 48.3648 83.4929 47.635L83.6003 47.4202H83.815V51.0004L83.5452 50.9728L83.4379 50.758C83.0855 49.9263 82.0643 49.3342 80.9881 49.3342H76.9006V49.3508H76.0087C76.0087 49.3508 76.7519 49.4169 76.9006 50.2183V58.6757H82.1194C83.4379 58.6757 84.971 57.7311 85.7775 56.4698L86.0748 56.0401H86.2592V56.0319Z" fill="white"/>
<path d="M106.997 49.6209C106.997 55.06 103.394 59.0147 98.3897 59.0147H90.3192V58.7201L90.5339 58.6925C91.2578 58.6402 91.7726 58.0205 91.7726 57.1861V42.0861C91.7726 41.2544 91.2606 40.632 90.5339 40.5797L90.3192 40.5549V40.2575L97.1813 40.2327C102.885 40.2299 106.997 44.1846 106.997 49.6209ZM105.304 49.5962C105.304 44.3994 101.885 40.6595 97.1813 40.6595H92.6093C92.6093 40.6595 93.4461 40.7311 93.5204 41.6702V58.5603L98.3897 58.5328C102.4 58.5328 105.304 54.7929 105.304 49.5962Z" fill="white"/>
<path d="M115.183 42.086V57.186C115.183 58.0205 115.695 58.6401 116.422 58.6925L116.636 58.72V59.0174H111.982V58.72L112.197 58.6925C112.923 58.6374 113.435 58.0205 113.435 57.186V42.086C113.435 41.2516 112.923 40.6319 112.197 40.5796L111.982 40.5521V40.2546H116.636V40.5521L116.422 40.5796C115.695 40.6319 115.183 41.2516 115.183 42.086Z" fill="white"/>
<path d="M124.407 49.7036C124.407 54.9802 127.715 58.7751 132.29 58.7751C133.124 58.7751 133.986 58.7201 134.845 58.6126C136.755 58.318 138.638 56.9713 139.337 55.4098C139.444 55.195 139.551 54.8728 139.659 54.6552H139.901V57.4064L139.929 57.4532C138.181 58.4749 134.979 59.202 132.343 59.202C126.667 59.202 122.549 55.1922 122.549 49.6733C122.549 44.1543 126.664 40.1445 132.343 40.1445C134.979 40.1445 138.181 40.8716 139.929 41.8933V44.6941L139.606 44.7216C139.499 44.5068 139.392 44.1846 139.284 43.967C138.665 42.5928 137.322 41.4086 136.003 41.0065C134.792 40.7642 133.474 40.6292 132.29 40.6292C127.715 40.632 124.407 44.427 124.407 49.7036Z" fill="white"/>
<path d="M160 58.7199V59.0174H154.916L154.864 58.7199L155.321 58.6924C156.155 58.6373 156.559 58.0204 156.234 57.186L154.404 52.3142H147.06L145.42 57.0235C145.205 57.9653 145.662 58.6401 146.603 58.6924L146.925 58.7199V59.0174H142.835V58.7199C143.697 58.6125 144.368 58.2352 144.773 57.3732L150.988 39.825H151.418L158.17 57.3209C158.629 58.2903 159.193 58.7199 160 58.7199ZM154.244 51.8846L150.614 42.086L147.198 51.8846H154.244Z" fill="white"/>
<path d="M57.407 73.3557H55.4637L55.2353 73.8955C55.0839 74.2535 55.0096 74.4738 55.0096 74.5536C55.0096 74.606 55.0233 74.6418 55.0508 74.6638C55.0784 74.6858 55.1499 74.7051 55.2655 74.7189L55.5876 74.7547V74.9667C55.3729 74.9502 55.1307 74.942 54.8609 74.942C54.5389 74.942 54.2554 74.9502 54.0104 74.9667V74.7547L54.1122 74.7519C54.2691 74.7464 54.371 74.7299 54.4178 74.7024C54.4645 74.6748 54.5113 74.606 54.5636 74.4958C54.7233 74.1736 54.8857 73.8238 55.0508 73.4493L55.9757 71.3535C56.2207 70.7972 56.3913 70.3951 56.4794 70.1445H56.7079L58.4089 74.102C58.5246 74.3719 58.5989 74.5316 58.6374 74.5867C58.6759 74.6418 58.72 74.6803 58.7695 74.7051C58.8191 74.7272 58.9292 74.7437 59.1026 74.7547V74.9667C58.8108 74.9502 58.5328 74.942 58.2686 74.942C58.0208 74.942 57.6933 74.9502 57.2832 74.9667V74.7547L57.6162 74.7354C57.7346 74.7271 57.8061 74.7134 57.8282 74.6996C57.8612 74.6748 57.8777 74.6445 57.8777 74.606C57.8777 74.5647 57.8447 74.46 57.7759 74.2893L57.407 73.3557ZM55.5876 73.0803H57.2804L56.4354 71.0616L55.5876 73.0803Z" fill="white"/>
<path d="M64.3849 73.3767C64.3518 73.5639 64.3353 73.7567 64.3353 73.9522C64.3353 74.1588 64.3518 74.3901 64.3849 74.649C64.0876 74.7647 63.749 74.8583 63.3747 74.9299C63.0003 75.0015 62.6398 75.0345 62.2984 75.0345C61.77 75.0345 61.3048 74.9299 60.9057 74.7233C60.5065 74.5168 60.1982 74.2276 59.9835 73.8586C59.7688 73.4896 59.6615 73.071 59.6615 72.6028C59.6615 72.1181 59.7771 71.6885 60.0083 71.3112C60.2395 70.9339 60.5616 70.6392 60.9717 70.4299C61.3846 70.2206 61.9048 70.116 62.5379 70.116C62.7967 70.116 63.0334 70.1325 63.2508 70.1655C63.4683 70.1986 63.7518 70.2674 64.1014 70.3666L64.3876 70.4437C64.3298 70.6805 64.2803 71.0138 64.2472 71.4379H64.0353V71.2148C64.0353 70.9945 64.016 70.865 63.9803 70.8292C63.9142 70.7576 63.7353 70.6695 63.4463 70.5621C63.1572 70.4547 62.8269 70.4024 62.4553 70.4024C61.7975 70.4024 61.2938 70.5786 60.9442 70.9339C60.5643 71.3195 60.3717 71.8289 60.3717 72.4623C60.3717 73.071 60.5423 73.586 60.8864 74.0018C61.2883 74.4948 61.8388 74.7426 62.5352 74.7426C62.8985 74.7426 63.2921 74.6628 63.7133 74.503C63.727 74.313 63.7325 74.112 63.7325 73.8999C63.7325 73.6245 63.727 73.4648 63.7188 73.4235C63.7105 73.3822 63.694 73.3546 63.6692 73.3436C63.6472 73.3326 63.5288 73.3161 63.3169 73.2968L62.9205 73.2637V73.0517C63.4325 73.0737 63.8151 73.0847 64.0628 73.0847C64.2775 73.0847 64.4619 73.0737 64.6161 73.0517V73.2197L64.3849 73.3767Z" fill="white"/>
<path d="M66.6996 72.6828V73.509L66.7024 73.9827C66.7024 74.2801 66.7051 74.4949 66.7134 74.6326C67.0409 74.6574 67.3933 74.6684 67.7676 74.6684C68.0181 74.6684 68.23 74.6574 68.4007 74.6354C68.5108 74.6216 68.6264 74.5941 68.7503 74.5473C68.8053 74.349 68.8631 74.1039 68.9209 73.8065H69.1439C69.0833 74.2994 69.0531 74.6271 69.0531 74.7924L69.0586 74.9438C68.7998 74.9659 68.5466 74.9769 68.2989 74.9769L67.7704 74.9659C67.1868 74.9493 66.7602 74.9411 66.4877 74.9411C66.2262 74.9411 65.8766 74.9493 65.4417 74.9659V74.7538H65.5463C65.7417 74.7538 65.8629 74.7345 65.9152 74.696C65.9647 74.6574 66.0005 74.5693 66.017 74.4261C66.0335 74.2856 66.0418 73.9744 66.0418 73.4925V71.6473C66.0418 71.3444 66.0335 71.0965 66.0198 70.9038C66.006 70.711 65.9895 70.5953 65.973 70.5595C65.9564 70.5237 65.9317 70.4934 65.9014 70.4741C65.8711 70.4549 65.7748 70.4356 65.6124 70.4191L65.3536 70.3915V70.1795H65.717L66.0721 70.1905C66.2702 70.1987 66.4216 70.2015 66.5262 70.2015L67.8172 70.1822L68.4282 70.1795C68.6374 70.1767 68.8466 70.185 69.0586 70.2043C68.9732 70.4714 68.9264 70.8156 68.9182 71.2425H68.6897C68.6897 70.9946 68.6787 70.7909 68.6539 70.6284C68.3897 70.5292 68.0649 70.4797 67.6795 70.4797C67.3713 70.4797 67.052 70.4934 66.7161 70.521C66.7189 70.7303 66.7161 70.9423 66.7106 71.1516L66.7051 71.6694V72.3496C66.9281 72.3661 67.1235 72.3744 67.2942 72.3744C67.8282 72.3744 68.1282 72.3551 68.1998 72.3193C68.2713 72.2835 68.3044 72.1678 68.3044 71.9751V71.7575H68.5328C68.5163 72.0962 68.5081 72.3661 68.5081 72.5672C68.5081 72.7792 68.5163 73.0326 68.5328 73.319H68.3044V73.1235C68.3044 72.9087 68.2631 72.7765 68.1777 72.7296C68.0952 72.6828 67.7979 72.658 67.2887 72.658C67.096 72.658 66.9006 72.6663 66.6996 72.6828Z" fill="white"/>
<path d="M69.909 73.6026L69.865 73.5558C69.9311 73.3851 69.9889 73.2226 70.0356 73.0684C70.3632 73.0849 70.6357 73.0904 70.8531 73.0904C71.0321 73.0904 71.3624 73.0821 71.8413 73.0684L71.8688 73.1179C71.7945 73.2887 71.7395 73.4512 71.7037 73.6026C71.3954 73.5834 71.1146 73.5723 70.8559 73.5723C70.5669 73.5723 70.2503 73.5834 69.909 73.6026Z" fill="white"/>
<path d="M73.8013 72.6827V73.8366C73.8013 74.2965 73.826 74.5636 73.8756 74.6408C73.9251 74.7179 74.049 74.7564 74.2527 74.7564H74.4921V74.9685C74.0655 74.952 73.7269 74.9437 73.4737 74.9437C73.2177 74.9437 72.8874 74.952 72.4828 74.9685V74.7564H72.7525C72.9452 74.7564 73.0636 74.7206 73.1076 74.6463C73.1517 74.5719 73.1737 74.302 73.1737 73.8366V71.3002C73.1737 70.8458 73.1489 70.5814 73.1021 70.5071C73.0553 70.4327 72.9287 70.3969 72.7278 70.3969H72.4855V70.1848C72.8571 70.2014 73.1929 70.2096 73.4902 70.2096L75.4225 70.1738C75.6234 70.1738 75.8134 70.1848 75.995 70.2041C75.9235 70.4437 75.8849 70.7825 75.8767 71.2231H75.662C75.6482 70.989 75.6207 70.7825 75.5822 70.5979C75.2739 70.5181 74.9656 70.4768 74.6518 70.4768C74.3793 70.4768 74.1095 70.4905 73.8481 70.5208C73.8205 70.8128 73.8068 71.0771 73.8068 71.314V72.3825C73.9416 72.3908 74.0738 72.3935 74.2031 72.3935C74.5389 72.3935 74.8335 72.3853 75.0867 72.366C75.172 72.3605 75.2298 72.344 75.2601 72.3109C75.2904 72.2779 75.3152 72.1925 75.3344 72.0493L75.3675 71.7932H75.5794C75.5601 72.2035 75.5519 72.4679 75.5519 72.5835L75.5546 73.3767H75.3317V73.1178C75.3317 72.9113 75.2931 72.7873 75.2133 72.7405C75.1335 72.6965 74.8335 72.6744 74.3132 72.6744C74.1673 72.6717 73.9967 72.6744 73.8013 72.6827Z" fill="white"/>
<path d="M79.177 72.5396C79.3972 72.8563 79.6697 73.2225 79.9945 73.6412L80.6386 74.4784C80.7542 74.6216 80.8286 74.7042 80.8671 74.7235C80.9056 74.7427 80.9442 74.7538 80.9854 74.7538H81.0735V74.9658C80.8864 74.9493 80.724 74.941 80.5863 74.941C80.4597 74.941 80.3248 74.9493 80.1845 74.9658L78.9954 73.3575C78.7724 73.0628 78.5357 72.7736 78.2824 72.49L78.3155 72.3743C78.4448 72.3853 78.5412 72.3908 78.6045 72.3908C78.9788 72.3908 79.2706 72.2945 79.4826 72.1017C79.6945 71.9089 79.7991 71.65 79.7991 71.3278C79.7991 71.0386 79.7083 70.8128 79.5293 70.6503C79.3504 70.4879 79.0917 70.408 78.7531 70.408C78.5192 70.408 78.2824 70.4521 78.043 70.5402C78.0154 70.8954 78.0017 71.2782 78.0017 71.6831V73.3079C78.0017 74.0983 78.0209 74.5389 78.0595 74.6243C78.098 74.7097 78.2219 74.7538 78.4283 74.7538H78.6898V74.9658C78.3182 74.9493 78.0099 74.941 77.765 74.941C77.5723 74.941 77.2227 74.9493 76.719 74.9658V74.7538H76.9722C77.1649 74.7538 77.2778 74.7125 77.3163 74.6271C77.3521 74.5445 77.3713 74.1011 77.3713 73.2997V71.6831C77.3713 70.9891 77.3493 70.598 77.308 70.5154C77.2667 70.4328 77.1319 70.3915 76.9034 70.3915H76.7217V70.1794C77.1374 70.1959 77.4567 70.2042 77.6769 70.2042C77.8255 70.2042 78.0375 70.1987 78.3155 70.1877C78.6375 70.1766 78.8687 70.1711 79.0119 70.1711C79.4 70.1711 79.6945 70.2125 79.8927 70.2951C80.0936 70.3777 80.245 70.4961 80.3496 70.6503C80.4542 70.8046 80.5065 70.9891 80.5065 71.2039C80.5065 71.5206 80.3936 71.7987 80.1652 72.0411C79.9395 72.2862 79.6092 72.4514 79.177 72.5396Z" fill="white"/>
<path d="M81.6735 74.7564H81.8854C82.0946 74.7564 82.2185 74.7068 82.2598 74.6049C82.301 74.503 82.3231 74.0211 82.3231 73.1564V72.0162C82.3231 71.1212 82.3038 70.6254 82.268 70.5346C82.2322 70.4437 82.1249 70.3969 81.946 70.3969H81.6735V70.1848C82.0451 70.2013 82.4139 70.2096 82.7772 70.2096C83.08 70.2096 83.3553 70.2013 83.603 70.1848V70.3969H83.3443C83.1846 70.3969 83.0855 70.4161 83.0442 70.4547C83.0029 70.4933 82.9809 70.5896 82.9727 70.7439C82.9617 70.9835 82.9561 71.4103 82.9561 72.0245V73.1839C82.9561 74.0569 82.9754 74.5361 83.0139 74.6242C83.0525 74.7123 83.1736 74.7564 83.3828 74.7564H83.6057V74.9685C83.3305 74.9519 83.0277 74.9437 82.7029 74.9437C82.3231 74.9437 81.9817 74.9519 81.6762 74.9685V74.7564H81.6735Z" fill="white"/>
<path d="M85.6563 72.6828V73.509L85.6591 73.9827C85.6591 74.2801 85.6618 74.4949 85.6701 74.6326C85.9976 74.6574 86.3499 74.6684 86.7243 74.6684C86.9748 74.6684 87.1867 74.6574 87.3574 74.6354C87.4675 74.6216 87.5831 74.5941 87.707 74.5473C87.762 74.349 87.8198 74.1039 87.8776 73.8065H88.1006C88.04 74.2994 88.0097 74.6271 88.0097 74.7924L88.0152 74.9438C87.7565 74.9659 87.5033 74.9769 87.2555 74.9769L86.727 74.9659C86.1435 74.9493 85.7169 74.9411 85.4444 74.9411C85.1829 74.9411 84.8333 74.9493 84.3984 74.9659V74.7538H84.503C84.6984 74.7538 84.8195 74.7345 84.8718 74.696C84.9214 74.6574 84.9572 74.5693 84.9737 74.4261C84.9902 74.2856 84.9984 73.9744 84.9984 73.4925V71.6473C84.9984 71.3444 84.9902 71.0965 84.9764 70.9038C84.9627 70.711 84.9461 70.5953 84.9296 70.5595C84.9131 70.5237 84.8883 70.4934 84.8581 70.4741C84.8278 70.4549 84.7314 70.4356 84.569 70.4191L84.3103 70.3915V70.1795H84.6736L85.0287 70.1905C85.2269 70.1987 85.3783 70.2015 85.4829 70.2015L86.7738 70.1822L87.3849 70.1795C87.5941 70.1767 87.8033 70.185 88.0152 70.2043C87.9299 70.4714 87.8831 70.8156 87.8749 71.2425H87.6464C87.6464 70.9946 87.6354 70.7909 87.6106 70.6284C87.3464 70.5292 87.0216 70.4797 86.6362 70.4797C86.3279 70.4797 86.0086 70.4934 85.6728 70.521C85.6756 70.7303 85.6728 70.9423 85.6673 71.1516L85.6618 71.6694V72.3496C85.8848 72.3661 86.0802 72.3744 86.2509 72.3744C86.7848 72.3744 87.0849 72.3551 87.1564 72.3193C87.228 72.2835 87.261 72.1678 87.261 71.9751V71.7575H87.4895C87.473 72.0962 87.4647 72.3661 87.4647 72.5672C87.4647 72.7792 87.473 73.0326 87.4895 73.319H87.2555V73.1235C87.2555 72.9087 87.2142 72.7765 87.1289 72.7296C87.0463 72.6828 86.7491 72.658 86.2398 72.658C86.0527 72.658 85.8572 72.6663 85.6563 72.6828Z" fill="white"/>
<path d="M89.7854 70.9422V73.2665C89.7854 73.7953 89.7964 74.1643 89.8157 74.3736C89.8322 74.5333 89.857 74.6297 89.8955 74.6655C89.934 74.7013 90.0414 74.7261 90.2176 74.7426L90.435 74.7591V74.9712C90.19 74.9547 89.9698 74.9464 89.7716 74.9464C89.634 74.9464 89.3202 74.9547 88.8275 74.9712V74.7591H89.0697C89.2156 74.7591 89.3092 74.7399 89.356 74.6986C89.4 74.6572 89.4276 74.5774 89.4413 74.459C89.4661 74.2111 89.4771 73.8779 89.4771 73.4538V71.7821C89.4771 71.4682 89.4744 71.157 89.4661 70.8513C89.4606 70.7218 89.4441 70.6337 89.4138 70.5841C89.3835 70.5373 89.3395 70.4933 89.2817 70.4547C89.2239 70.4161 89.1413 70.3969 89.0367 70.3969H88.8275V70.1848C89.111 70.2013 89.3285 70.2096 89.4799 70.2096C89.6423 70.2096 89.8184 70.2013 90.0111 70.1848C90.2341 70.4547 90.4405 70.7191 90.6387 70.978C90.8341 71.2341 91.0378 71.4929 91.2498 71.7518L92.3976 73.1646C92.8132 73.6713 93.1105 74.0238 93.2949 74.2194V72.0603C93.2949 71.157 93.2784 70.664 93.2454 70.5786C93.2123 70.4933 93.083 70.4409 92.8572 70.4189L92.604 70.3969V70.1848C92.9646 70.2013 93.2454 70.2096 93.4435 70.2096C93.6527 70.2096 93.9197 70.2013 94.25 70.1848V70.3969H93.9913C93.7821 70.3969 93.6637 70.4657 93.6307 70.6062C93.6114 70.6971 93.6004 71.19 93.6004 72.0795V73.5942C93.6004 74.0018 93.6169 74.4893 93.6555 75.0566C93.3499 75.0098 93.1738 74.9767 93.1242 74.9547C93.0747 74.9327 93.0279 74.8968 92.9839 74.85C92.7361 74.5746 92.4746 74.2689 92.2021 73.933L89.7854 70.9422Z" fill="white"/>
<path d="M95.4856 74.6325C95.5214 74.2855 95.5407 73.6769 95.5407 72.8094V71.8345C95.5407 71.4352 95.5269 71.0909 95.4994 70.8017C95.4829 70.6338 95.4636 70.5374 95.4361 70.5098C95.4113 70.4823 95.3177 70.4575 95.158 70.4355L94.8883 70.3942V70.1821C95.2571 70.1931 95.5076 70.1986 95.6342 70.1986L96.5371 70.1931L97.272 70.1793C97.5665 70.1738 97.8721 70.2041 98.1831 70.2675C98.4941 70.3308 98.7777 70.4575 99.0309 70.6448C99.2841 70.8348 99.4768 71.0716 99.6089 71.358C99.741 71.6445 99.8071 71.9749 99.8071 72.3467C99.8071 73.1041 99.5511 73.732 99.0419 74.2249C98.5327 74.7206 97.8666 74.9685 97.0435 74.9685L96.6307 74.9575C96.226 74.941 95.9701 74.9355 95.86 74.9355C95.6783 74.9355 95.4471 74.9492 95.1691 74.9768V74.8143L95.4856 74.6325ZM96.2123 74.616C96.5151 74.6601 96.7821 74.6821 97.0133 74.6821C97.6409 74.6821 98.1281 74.5196 98.4749 74.1974C98.8933 73.8063 99.1025 73.2335 99.1025 72.4817C99.1025 71.8262 98.929 71.3278 98.5795 70.9863C98.2299 70.642 97.7207 70.4713 97.049 70.4713C96.8151 70.4713 96.5343 70.4961 96.2123 70.5429C96.1848 70.7577 96.171 71.0028 96.171 71.2754V73.4731C96.171 73.8807 96.1848 74.2607 96.2123 74.616Z" fill="white"/>
<path d="M101.902 74.6381C102.122 74.6491 102.334 74.6546 102.543 74.6546C102.964 74.6546 103.295 74.6436 103.531 74.6215C103.696 74.6023 103.867 74.572 104.046 74.5251L104.247 73.7348H104.464C104.409 74.1589 104.365 74.5527 104.332 74.9217C104.131 74.9548 103.856 74.9713 103.506 74.9713L101.907 74.9437C101.693 74.9437 101.357 74.9548 100.903 74.9796V74.8005C101.081 74.7207 101.189 74.6381 101.219 74.5472C101.252 74.4563 101.269 74.101 101.269 73.4814V71.6335C101.269 70.9615 101.252 70.587 101.219 70.5099C101.186 70.4327 101.095 70.3942 100.944 70.3942H100.578V70.1821C101.112 70.1987 101.464 70.2069 101.64 70.2069C101.874 70.2069 102.188 70.1987 102.587 70.1821V70.3942H102.171C102.053 70.3942 101.979 70.4272 101.946 70.4961C101.916 70.5649 101.899 70.8486 101.899 71.3471V73.4897L101.91 74.437L101.902 74.6381Z" fill="white"/>
<path d="M107.454 72.6001C107.591 72.3936 107.806 72.0356 108.103 71.5233L108.874 70.1821H109.394V70.2648C109.122 70.5732 108.786 71.0359 108.39 71.6555C107.993 72.2752 107.757 72.691 107.677 72.9003C107.649 72.9747 107.635 73.1647 107.635 73.4676C107.635 73.8724 107.646 74.1947 107.666 74.4315C107.679 74.5582 107.701 74.6353 107.735 74.6601C107.768 74.6849 107.883 74.7069 108.079 74.7262L108.335 74.7537V74.9658C107.944 74.9493 107.638 74.941 107.418 74.941L106.333 74.9658V74.7537H106.62C106.81 74.7537 106.925 74.7152 106.964 74.6353C107.002 74.5582 107.022 74.2029 107.022 73.575C107.022 73.3905 107.016 73.1922 107.005 72.9747C106.716 72.4431 106.449 71.986 106.204 71.5977C105.959 71.2094 105.753 70.9285 105.585 70.7495C105.494 70.6503 105.414 70.587 105.345 70.5539C105.276 70.5236 105.161 70.5071 105.001 70.5071V70.2951C105.092 70.2758 105.274 70.24 105.543 70.1876L105.808 70.1326C105.91 70.1711 105.995 70.2179 106.055 70.2758C106.168 70.3804 106.339 70.6228 106.57 70.9973C106.752 71.2947 107.044 71.8263 107.454 72.6001Z" fill="white"/>
<path d="M117.044 70.909L116.044 72.9883C115.67 73.7677 115.362 74.4506 115.122 75.0345H114.987C114.905 74.8334 114.668 74.3212 114.274 73.4978L113.072 71.0054V73.6052C113.072 74.211 113.096 74.5525 113.143 74.6352C113.193 74.7178 113.341 74.7591 113.595 74.7591H113.718V74.9711C113.407 74.9546 113.151 74.9464 112.959 74.9464C112.818 74.9464 112.535 74.9546 112.114 74.9711V74.7591H112.331C112.48 74.7591 112.576 74.7371 112.626 74.6957C112.675 74.6544 112.706 74.5773 112.717 74.4644C112.747 74.1505 112.761 73.8117 112.761 73.4482V71.5452C112.761 71.0853 112.75 70.7824 112.73 70.6336C112.722 70.5565 112.689 70.4987 112.631 70.4601C112.573 70.4188 112.461 70.3996 112.29 70.3996H112.111V70.1875C112.502 70.204 112.747 70.2123 112.846 70.2123C112.973 70.2123 113.154 70.204 113.391 70.1875C113.663 70.7906 113.974 71.4543 114.33 72.1814L115.213 74.0017L116.031 72.3163C116.317 71.727 116.644 71.0164 117.013 70.1875C117.294 70.204 117.489 70.2123 117.605 70.2123C117.737 70.2123 117.977 70.204 118.321 70.1875V70.3996H118.101C117.902 70.3996 117.781 70.4326 117.737 70.5015C117.693 70.5703 117.671 70.8154 117.671 71.2395V73.6961C117.671 74.2441 117.693 74.5553 117.74 74.6379C117.787 74.7178 117.916 74.7591 118.128 74.7591H118.321V74.9711C118.01 74.9546 117.712 74.9464 117.426 74.9464C117.112 74.9464 116.785 74.9546 116.441 74.9711V74.7591H116.664C116.84 74.7591 116.947 74.7205 116.986 74.6434C117.022 74.5663 117.041 74.2331 117.041 73.6465V70.909H117.044Z" fill="white"/>
<path d="M120.333 72.6828V73.509L120.336 73.9827C120.336 74.2801 120.338 74.4949 120.347 74.6326C120.674 74.6574 121.027 74.6684 121.401 74.6684C121.651 74.6684 121.863 74.6574 122.034 74.6354C122.144 74.6216 122.26 74.5941 122.384 74.5473C122.439 74.349 122.496 74.1039 122.554 73.8065H122.777C122.717 74.2994 122.686 74.6271 122.686 74.7924L122.692 74.9438C122.433 74.9659 122.18 74.9769 121.932 74.9769L121.404 74.9659C120.82 74.9493 120.393 74.9411 120.121 74.9411C119.859 74.9411 119.51 74.9493 119.075 74.9659V74.7538H119.18C119.375 74.7538 119.496 74.7345 119.548 74.696C119.598 74.6574 119.634 74.5693 119.65 74.4261C119.667 74.2856 119.675 73.9744 119.675 73.4925V71.6473C119.675 71.3444 119.667 71.0965 119.653 70.9038C119.639 70.711 119.623 70.5953 119.606 70.5595C119.59 70.5237 119.565 70.4934 119.535 70.4741C119.504 70.4549 119.408 70.4356 119.246 70.4191L118.987 70.3915V70.1795H119.35L119.705 70.1905C119.904 70.1987 120.055 70.2015 120.16 70.2015L121.45 70.1822L122.062 70.1795C122.271 70.1767 122.48 70.185 122.692 70.2043C122.607 70.4714 122.56 70.8156 122.552 71.2425H122.323C122.323 70.9946 122.312 70.7909 122.287 70.6284C122.023 70.5292 121.698 70.4797 121.313 70.4797C121.005 70.4797 120.685 70.4934 120.349 70.521C120.352 70.7303 120.349 70.9423 120.344 71.1516L120.338 71.6694V72.3496C120.561 72.3661 120.757 72.3744 120.927 72.3744C121.461 72.3744 121.762 72.3551 121.833 72.3193C121.905 72.2835 121.938 72.1678 121.938 71.9751V71.7575H122.166C122.15 72.0962 122.141 72.3661 122.141 72.5672C122.141 72.7792 122.15 73.0326 122.166 73.319H121.938V73.1235C121.938 72.9087 121.896 72.7765 121.811 72.7296C121.728 72.6828 121.431 72.658 120.922 72.658C120.729 72.658 120.537 72.6663 120.333 72.6828Z" fill="white"/>
<path d="M124.101 74.6325C124.137 74.2855 124.156 73.6769 124.156 72.8094V71.8345C124.156 71.4352 124.142 71.0909 124.115 70.8017C124.098 70.6338 124.079 70.5374 124.052 70.5098C124.027 70.4823 123.933 70.4575 123.774 70.4355L123.504 70.3942V70.1821C123.873 70.1931 124.123 70.1986 124.25 70.1986L125.153 70.1931L125.887 70.1793C126.182 70.1738 126.488 70.2041 126.799 70.2675C127.11 70.3308 127.393 70.4575 127.646 70.6448C127.9 70.8348 128.092 71.0716 128.224 71.358C128.357 71.6445 128.423 71.9749 128.423 72.3467C128.423 73.1041 128.167 73.732 127.657 74.2249C127.148 74.7206 126.482 74.9685 125.659 74.9685L125.246 74.9575C124.842 74.941 124.586 74.9355 124.475 74.9355C124.294 74.9355 124.063 74.9492 123.785 74.9768V74.8143L124.101 74.6325ZM124.828 74.616C125.131 74.6601 125.398 74.6821 125.629 74.6821C126.256 74.6821 126.744 74.5196 127.09 74.1974C127.509 73.8063 127.718 73.2335 127.718 72.4817C127.718 71.8262 127.545 71.3278 127.195 70.9863C126.845 70.642 126.336 70.4713 125.665 70.4713C125.431 70.4713 125.15 70.4961 124.828 70.5429C124.8 70.7577 124.786 71.0028 124.786 71.2754V73.4731C124.786 73.8807 124.8 74.2607 124.828 74.616Z" fill="white"/>
<path d="M134.021 72.5037L134.225 72.198C134.456 72.2091 134.635 72.2146 134.762 72.2146L135.186 72.2035C135.601 72.1925 135.948 72.187 136.223 72.1843C136.188 72.377 136.163 72.5368 136.146 72.669C135.907 72.6304 135.585 72.6056 135.177 72.5919C135.205 72.7075 135.219 72.8067 135.219 72.8865C135.219 73.0683 135.175 73.2528 135.089 73.4456C135.004 73.6356 134.855 73.8422 134.646 74.0597C134.875 74.2277 135.092 74.3489 135.299 74.4205C135.505 74.4921 135.692 74.5306 135.86 74.5306C135.945 74.5306 136.075 74.4756 136.245 74.3682L136.295 74.5306C136.012 74.7317 135.813 74.8859 135.7 74.9906C135.61 75.0209 135.519 75.0346 135.425 75.0346C135.081 75.0346 134.682 74.8474 134.222 74.4756C133.964 74.6876 133.73 74.8308 133.52 74.9134C133.309 74.9933 133.08 75.0346 132.83 75.0346C132.417 75.0346 132.081 74.9052 131.819 74.6436C131.558 74.3847 131.426 74.0597 131.426 73.6742C131.426 73.3464 131.522 73.0573 131.715 72.8039C131.847 72.6304 132.103 72.4294 132.48 72.1953C132.351 71.8538 132.285 71.5674 132.285 71.3305C132.285 71.1488 132.312 70.9918 132.364 70.8569C132.4 70.766 132.469 70.6751 132.574 70.5842C132.838 70.3584 133.006 70.2262 133.075 70.1904C133.176 70.1381 133.292 70.1133 133.427 70.1133C133.617 70.1133 133.765 70.1711 133.876 70.2868C133.983 70.4024 134.038 70.5594 134.038 70.7577C134.038 71.2176 133.71 71.6748 133.053 72.1319C133.419 72.8122 133.884 73.3988 134.443 73.8972C134.569 73.743 134.657 73.5998 134.707 73.4704C134.754 73.3409 134.778 73.2032 134.778 73.06C134.778 72.9031 134.751 72.7736 134.699 72.669C134.674 72.6221 134.638 72.5919 134.591 72.5781C134.511 72.5561 134.324 72.545 134.032 72.5478L134.021 72.5037ZM134.021 74.3021C133.49 73.8146 133.017 73.195 132.596 72.4459C132.381 72.5974 132.23 72.7488 132.141 72.9058C132.053 73.0628 132.009 73.2335 132.009 73.4263C132.009 73.7403 132.117 74.0212 132.334 74.2663C132.552 74.5141 132.821 74.6353 133.146 74.6353C133.43 74.6353 133.719 74.5251 134.021 74.3021ZM132.942 71.9006C133.355 71.5674 133.562 71.2424 133.562 70.9229C133.562 70.7825 133.526 70.6696 133.457 70.5842C133.388 70.4988 133.3 70.4575 133.196 70.4575C133.069 70.4575 132.967 70.5071 132.887 70.6062C132.808 70.7054 132.769 70.8596 132.769 71.0662C132.766 71.2975 132.824 71.5756 132.942 71.9006Z" fill="white"/>
<path d="M142.078 70.4107C142.015 70.6448 141.982 70.9533 141.976 71.3388H141.745V71.0689C141.745 70.8954 141.72 70.7743 141.673 70.7109C141.627 70.6476 141.503 70.5815 141.305 70.5099C141.106 70.4383 140.897 70.4052 140.677 70.4052C140.319 70.4052 140.036 70.4961 139.832 70.6779C139.628 70.8596 139.524 71.091 139.524 71.3774C139.524 71.5564 139.565 71.7106 139.65 71.8401C139.736 71.9695 139.848 72.0604 139.989 72.1182C140.132 72.176 140.432 72.2256 140.894 72.2697C141.357 72.3137 141.668 72.3743 141.83 72.4487C141.993 72.523 142.122 72.6415 142.221 72.8039C142.318 72.9664 142.367 73.162 142.367 73.385C142.367 73.8367 142.18 74.2222 141.803 74.55C141.426 74.8749 140.925 75.0374 140.297 75.0374C140.082 75.0374 139.865 75.0154 139.648 74.9713C139.43 74.9273 139.21 74.8639 138.987 74.7785C139.028 74.5086 139.047 74.1644 139.045 73.743H139.273V73.911C139.273 74.1286 139.284 74.2635 139.306 74.3131C139.328 74.3654 139.381 74.4205 139.463 74.4784C139.587 74.5665 139.733 74.6326 139.904 74.6794C140.074 74.7262 140.259 74.7482 140.454 74.7482C140.878 74.7482 141.205 74.6491 141.434 74.4481C141.665 74.2498 141.781 73.9964 141.781 73.688C141.781 73.509 141.742 73.3575 141.662 73.2336C141.583 73.1096 141.475 73.016 141.332 72.9554C141.189 72.8948 140.93 72.848 140.55 72.8177C140.044 72.7764 139.7 72.7158 139.518 72.636C139.336 72.5561 139.193 72.4294 139.092 72.2559C138.99 72.0824 138.937 71.8676 138.937 71.6087C138.937 71.1708 139.094 70.8128 139.411 70.5374C139.727 70.2593 140.162 70.1216 140.721 70.1216C140.944 70.1216 141.17 70.1464 141.395 70.1932C141.624 70.2373 141.85 70.3116 142.078 70.4107Z" fill="white"/>
<path d="M144.302 70.5511C144.286 70.8733 144.277 71.2175 144.277 71.5838V73.5033C144.277 74.1781 144.297 74.5554 144.338 74.6352C144.379 74.7151 144.511 74.7564 144.734 74.7564H144.966V74.9685C144.569 74.9519 144.255 74.9437 144.027 74.9437C143.826 74.9437 143.468 74.9519 142.956 74.9685V74.7564H143.259C143.399 74.7564 143.49 74.7399 143.532 74.7041C143.573 74.6683 143.598 74.5994 143.609 74.492C143.62 74.3846 143.633 74.0596 143.644 73.5144V71.7188L143.633 71.022C143.628 70.7329 143.598 70.5566 143.54 70.4905C143.482 70.4244 143.344 70.3941 143.121 70.3941H142.953V70.1821C143.234 70.1931 143.589 70.1986 144.019 70.1986C144.272 70.1986 144.553 70.1931 144.861 70.1793C145.065 70.171 145.219 70.1655 145.323 70.1655C145.866 70.1655 146.259 70.2647 146.507 70.4602C146.752 70.6585 146.873 70.9229 146.873 71.2589C146.873 71.504 146.802 71.738 146.661 71.9639C146.521 72.1897 146.32 72.3715 146.061 72.5064C145.802 72.6441 145.527 72.7102 145.233 72.7102C145.098 72.7102 144.93 72.6882 144.729 72.6469L144.663 72.3935C144.861 72.4431 145.023 72.4679 145.156 72.4679C145.464 72.4679 145.709 72.3742 145.89 72.1869C146.072 71.9997 146.163 71.7436 146.163 71.4186C146.163 71.1046 146.067 70.8595 145.871 70.6833C145.679 70.507 145.389 70.4189 145.007 70.4189C144.798 70.4272 144.561 70.4685 144.302 70.5511Z" fill="white"/>
<path d="M150.834 73.3547H148.891L148.662 73.8945C148.511 74.2525 148.437 74.4728 148.437 74.5527C148.437 74.605 148.45 74.6408 148.478 74.6628C148.505 74.6849 148.577 74.7041 148.693 74.7179L149.015 74.7537V74.9658C148.8 74.9492 148.558 74.941 148.288 74.941C147.966 74.941 147.682 74.9492 147.437 74.9658V74.7537L147.539 74.751C147.696 74.7454 147.798 74.7289 147.842 74.7014C147.889 74.6738 147.936 74.605 147.988 74.4948C148.148 74.1726 148.31 73.8229 148.475 73.4483L149.4 71.3526C149.648 70.7962 149.816 70.3942 149.904 70.1436H150.132L151.833 74.101C151.949 74.3709 152.023 74.5306 152.062 74.5857C152.1 74.6408 152.144 74.6794 152.194 74.7041C152.243 74.7262 152.353 74.7427 152.527 74.7537V74.9658C152.235 74.9492 151.957 74.941 151.693 74.941C151.445 74.941 151.118 74.9492 150.707 74.9658V74.7537L151.04 74.7344C151.159 74.7262 151.23 74.7124 151.252 74.6986C151.285 74.6738 151.302 74.6436 151.302 74.605C151.302 74.5637 151.269 74.459 151.2 74.2883L150.834 73.3547ZM149.015 73.0793H150.707L149.862 71.0606L149.015 73.0793Z" fill="white"/>
<path d="M47.118 65.1204H159.422" stroke="#A2A9A9" stroke-width="1.5" stroke-miterlimit="10" stroke-linecap="round" stroke-linejoin="round"/>
</g>
<defs>
<clipPath id="clip0">
<rect width="160" height="80" fill="white"/>
</clipPath>
</defs>
</svg>
