<svg width="28" height="18" viewBox="0 0 28 18" fill="none" xmlns="http://www.w3.org/2000/svg">
<path fill-rule="evenodd" clip-rule="evenodd" d="M8.34951 0.195418C3.912 0.249608 0.0290469 4.42637 0.197419 8.94607C0.123454 12.6037 2.59476 16.0942 5.99305 17.2321C9.19508 18.3288 13.1312 17.5084 15.2617 14.7129C16.8175 12.7545 17.1706 10.1432 17.0023 7.70312C14.5645 7.68089 12.1268 7.68501 9.69199 7.68913C9.38817 7.68964 9.08439 7.69016 8.78066 7.69062C8.77658 8.6846 8.78064 9.67482 8.78472 10.6688L8.78475 10.6744C9.69282 10.7 10.601 10.7051 11.5092 10.7101C12.2429 10.7142 12.9766 10.7183 13.7103 10.7332C13.2958 12.1811 12.3514 13.5287 10.9189 14.0516C8.15252 15.2946 4.62266 13.6708 3.75218 10.712C2.70106 7.87896 4.42121 4.45971 7.2616 3.63512C9.02262 3.00342 10.8368 3.7147 12.3436 4.64805C13.1067 3.91971 13.821 3.14173 14.5231 2.35466C12.8115 0.894197 10.6112 -0.00125551 8.34951 0.195418ZM24.7808 5.17933H22.3389C22.3303 6.01226 22.3221 6.84936 22.318 7.68152C21.4974 7.68986 20.6804 7.69403 19.8635 7.6982V10.1924C19.9748 10.193 20.0862 10.1937 20.1977 10.1943C20.9041 10.1981 21.6127 10.202 22.318 10.2095C22.3225 10.6454 22.3246 11.0813 22.3268 11.5177C22.3287 11.9152 22.3307 12.3131 22.3344 12.712C22.6049 12.712 22.8759 12.7116 23.1473 12.7111C23.691 12.7102 24.2361 12.7093 24.7808 12.712L24.7818 12.5151C24.7859 11.7443 24.79 10.9767 24.7975 10.2053L27.2521 10.1928V7.69858L27.2402 7.69852C26.4272 7.69437 25.6102 7.6902 24.7975 7.6819C24.7953 7.2658 24.7922 6.84857 24.7892 6.43129C24.7861 6.01365 24.783 5.59597 24.7808 5.17933Z" fill="#716F74"/>
</svg>
