<svg width="100" height="85" viewBox="0 0 100 85" fill="none" xmlns="http://www.w3.org/2000/svg">
<g clip-path="url(#clip0)">
<path d="M21.9445 67.7487L3.6042 35.9801C-5.52705 20.1619 5.88506 0.389221 24.1553 0.389221H75.8524C94.1149 0.389221 105.535 20.1619 96.4035 35.9801L78.0632 67.7487C65.5846 89.3508 34.4153 89.3508 21.9445 67.7487Z" fill="white" fill-opacity="0.16" stroke="#716F74" stroke-miterlimit="10"/>
<path d="M77.2536 34.3531C77.6039 33.4034 77.7985 32.3836 77.7985 31.3172C77.7985 26.5063 73.8985 22.6063 69.0876 22.6063C64.2768 22.6063 60.3768 26.5063 60.3768 31.3172L60.3223 32.4148C59.0923 44.6754 52.9659 50.8096 52.9659 50.8096V50.2725V58.5864C52.9659 60.0499 51.7827 61.2331 50.3192 61.2331C48.8557 61.2331 47.6724 60.0499 47.6724 58.5864V50.2647L47.4545 50.1869C47.4545 50.1869 41.3203 44.0526 40.0981 31.792L40.0436 30.6944C40.0436 25.8836 36.1435 21.9835 31.3327 21.9835C26.5219 21.9835 22.6218 25.8836 22.6218 30.6944C22.6218 31.7609 22.8164 32.7884 23.1667 33.7304" stroke="#716F74" stroke-miterlimit="10"/>
<path d="M22.1859 40.246C18.5661 37.9651 16.1685 33.9327 16.1685 29.3476C16.1685 22.2326 21.9368 16.472 29.0441 16.472C34.6801 16.472 39.5376 20.2865 41.9197 25.0584C43.1496 27.5105 56.6324 27.5105 58.4773 25.6734C60.8594 20.9014 65.717 17.087 71.3529 17.087C78.468 17.087 84.2285 22.8554 84.2285 29.9626C84.2285 34.4854 81.8932 38.4711 78.359 40.7675" stroke="#716F74" stroke-miterlimit="10"/>
<path d="M29.6512 45.4305C33.9505 45.4305 37.4357 41.9452 37.4357 37.646C37.4357 33.3467 33.9505 29.8615 29.6512 29.8615C25.3519 29.8615 21.8667 33.3467 21.8667 37.646C21.8667 41.9452 25.3519 45.4305 29.6512 45.4305Z" stroke="#716F74" stroke-miterlimit="10"/>
<path d="M70.738 46.0454C75.0373 46.0454 78.5225 42.5602 78.5225 38.2609C78.5225 33.9616 75.0373 30.4764 70.738 30.4764C66.4387 30.4764 62.9535 33.9616 62.9535 38.2609C62.9535 42.5602 66.4387 46.0454 70.738 46.0454Z" stroke="#716F74" stroke-miterlimit="10"/>
</g>
<defs>
<clipPath id="clip0">
<rect width="100" height="84.3375" fill="white"/>
</clipPath>
</defs>
</svg>
