<svg width="100" height="85" viewBox="0 0 100 85" fill="none" xmlns="http://www.w3.org/2000/svg">
<g clip-path="url(#clip0)">
<path d="M21.9445 67.7487L3.6042 35.9801C-5.52705 20.1619 5.88506 0.389221 24.1553 0.389221H75.8524C94.1149 0.389221 105.535 20.1619 96.4035 35.9801L78.0632 67.7487C65.5846 89.3508 34.4153 89.3508 21.9445 67.7487Z" fill="white" fill-opacity="0.16" stroke="#716F74" stroke-miterlimit="10"/>
<path d="M77.0668 32.695H63.0359C58.0756 32.695 54.638 37.6565 56.3755 42.3004L60.822 54.1483C63.7085 61.8476 58.0196 70.0607 49.7991 70.0607H48.2952C40.0747 70.0607 34.3764 61.8476 37.2723 54.1483L41.7188 42.3004C43.4656 37.6472 40.028 32.695 35.0584 32.695H21.0182" stroke="#716F74" stroke-miterlimit="10" stroke-linecap="round" stroke-linejoin="round"/>
<path d="M64.6115 14.0121C64.6115 14.0121 53.8977 20.9953 50.7764 27.2802C47.6552 33.565 46.6644 45.4364 45.8841 48.2297C45.1038 51.023 39.6416 61.4977 49.0053 61.4977C58.369 61.4977 51.3462 49.6263 51.3462 48.2297C51.3462 46.8331 50.5659 34.2634 54.4675 27.2802C58.369 20.297 64.6115 14.0121 64.6115 14.0121Z" stroke="#716F74" stroke-miterlimit="10" stroke-linecap="round" stroke-linejoin="round"/>
</g>
<defs>
<clipPath id="clip0">
<rect width="100" height="84.3375" fill="white"/>
</clipPath>
</defs>
</svg>
