<svg width="100" height="85" viewBox="0 0 100 85" fill="none" xmlns="http://www.w3.org/2000/svg">
<g clip-path="url(#clip0)">
<path d="M21.9445 67.7487L3.6042 35.9801C-5.52705 20.1619 5.88506 0.389221 24.1553 0.389221H75.8524C94.1149 0.389221 105.535 20.1619 96.4035 35.9801L78.0632 67.7487C65.5846 89.3508 34.4153 89.3508 21.9445 67.7487Z" fill="white" fill-opacity="0.16" stroke="#716F74" stroke-miterlimit="10"/>
<path d="M21.5864 23.9685C24.7859 20.917 29.8769 21.0883 32.8662 24.3422L33.1387 24.638C35.9255 27.674 40.7052 27.674 43.4921 24.638C46.5903 21.2673 51.8916 21.2206 55.0443 24.5368L55.6515 25.1751C58.3294 27.9931 62.7821 28.1021 65.5923 25.4165L67.4995 23.5949C70.5511 20.6835 75.3541 20.6835 78.4057 23.5949" stroke="#716F74" stroke-miterlimit="10" stroke-linecap="round" stroke-linejoin="round"/>
<path d="M21.5864 32.5315C24.7859 29.48 29.8769 29.6512 32.8662 32.9052L33.1387 33.201C35.9255 36.237 40.7052 36.237 43.4921 33.201C46.5903 29.8303 51.8916 29.7836 55.0443 33.0998L55.6515 33.7381C58.3294 36.5561 62.7821 36.6651 65.5923 33.9794L67.4995 32.1579C70.5511 29.2465 75.3541 29.2465 78.4057 32.1579" stroke="#716F74" stroke-miterlimit="10" stroke-linecap="round" stroke-linejoin="round"/>
<path d="M23.3613 42.1532H76.6386" stroke="#716F74" stroke-miterlimit="10" stroke-linecap="round" stroke-linejoin="round"/>
<path d="M23.3613 50.7162H76.6386" stroke="#716F74" stroke-miterlimit="10" stroke-linecap="round" stroke-linejoin="round"/>
</g>
<defs>
<clipPath id="clip0">
<rect width="100" height="84.3375" fill="white"/>
</clipPath>
</defs>
</svg>
