<svg id="Layer_1" data-name="Layer 1" xmlns="http://www.w3.org/2000/svg" viewBox="0 0 639.197 174.96"><defs><style>.cls-1{fill:#39a586;}</style></defs><title>ITWD Presentation</title><path class="cls-1" d="M630.075,157.019,631.292,159l3.411-2.091-1.217-1.985ZM328.212,4.04C433.538,5.531,496.263,23.21,538.961,50.648s65.622,64.782,91.114,106.371l3.411-2.091C608.043,113.42,584.7,75.287,541.123,47.283S433.963,1.537,328.269.04ZM7.417,166.627,9.1,167.711l0,0,.013-.02.055-.085c.051-.077.127-.193.23-.347.205-.309.516-.771.932-1.376.833-1.21,2.086-2.991,3.758-5.261,3.345-4.541,8.369-11.036,15.063-18.828a414.531,414.531,0,0,1,60.14-57C142.652,43.462,222.429,2.542,328.212,4.04l.057-4C221.355-1.474,140.719,39.9,86.843,81.623a418.408,418.408,0,0,0-60.724,57.561c-6.766,7.874-11.852,14.448-15.25,19.061-1.7,2.307-2.978,4.124-3.833,5.367-.428.622-.75,1.1-.967,1.426q-.162.244-.245.372l-.064.1-.016.025,0,.008S5.737,165.543,7.417,166.627ZM632.531,159.9a2,2,0,0,0,2.411-1.478l4.2-17.5a2,2,0,1,0-3.889-.933l-3.733,15.558-15.558-3.733a2,2,0,0,0-.934,3.89Zm-.751-3.93-1.7,1.046h0ZM328.24,2.04l-.028,2Z"/><circle class="cls-1" cx="12" cy="162.96" r="12"/></svg>