<svg width="34" height="30" viewBox="0 0 34 30" fill="none" xmlns="http://www.w3.org/2000/svg">
<path d="M30.26 3.91505C29.4939 3.14856 28.5842 2.54052 27.583 2.12568C26.5818 1.71084 25.5087 1.49731 24.425 1.49731C23.3413 1.49731 22.2682 1.71084 21.267 2.12568C20.2658 2.54052 19.3561 3.14856 18.59 3.91505L17 5.50505L15.41 3.91505C13.8625 2.36751 11.7636 1.49812 9.575 1.49812C7.38645 1.49812 5.28754 2.36751 3.74 3.91505C2.19246 5.46259 1.32307 7.5615 1.32307 9.75005C1.32307 11.9386 2.19246 14.0375 3.74 15.5851L5.33 17.1751L17 28.8451L28.67 17.1751L30.26 15.5851C31.0265 14.8189 31.6345 13.9093 32.0494 12.9081C32.4642 11.9069 32.6777 10.8338 32.6777 9.75005C32.6777 8.66632 32.4642 7.59321 32.0494 6.59202C31.6345 5.59083 31.0265 4.68119 30.26 3.91505V3.91505Z" stroke="#D69A6D" stroke-width="2" stroke-linecap="round" stroke-linejoin="round"/>
</svg>
