<svg id="Layer_1" data-name="Layer 1" xmlns="http://www.w3.org/2000/svg" viewBox="0 0 1081.221 85.223"><defs><style>.cls-1{fill:#fff;}.cls-2{fill:#39a586;}</style></defs><title>Logotype</title><polygon class="cls-1" points="318.486 1.304 283.498 84.491 283.618 84.848 256.841 84.848 256.96 84.491 237.206 40.339 217.688 84.848 190.912 84.848 155.449 1.304 184.723 1.304 204.241 48.55 223.757 1.304 250.296 1.304 270.051 48.074 289.33 1.304 318.486 1.304"/><path class="cls-1" d="M345.9,46.775h21.54l-10.829-21.9Zm32.37-45.223,37.488,83.305H383.629l-6.308-14.042h-41.3l-6.307,14.042H297.825l37.368-83.3Z"/><polygon class="cls-1" points="394.739 1.304 505.057 1.304 505.057 28.914 463.763 28.914 463.763 77.688 436.153 84.848 436.153 28.914 394.739 28.914 394.739 1.304"/><path class="cls-1" d="M563.295.608a116.084,116.084,0,0,1,27.012,2.738q11.308,2.617,17.852,7.735a30.113,30.113,0,0,1,9.521,11.663,37.647,37.647,0,0,1,2.976,15.471H592.212a10.5,10.5,0,0,0-.476-1.548,11.1,11.1,0,0,0-2.023-3.212,16.932,16.932,0,0,0-4.642-4.166,28.3,28.3,0,0,0-8.685-3.332,51.259,51.259,0,0,0-13.329-1.547,58.6,58.6,0,0,0-11.9,1.071,29.019,29.019,0,0,0-7.975,2.737A14.173,14.173,0,0,0,538.54,32.5a15.517,15.517,0,0,0-2.261,5,22.2,22.2,0,0,0-.6,5.355,19.463,19.463,0,0,0,1.309,7.378,16.7,16.7,0,0,0,4.284,5.951,20.49,20.49,0,0,0,8.45,4.046,53.54,53.54,0,0,0,13.33,1.428,72.433,72.433,0,0,0,14.043-1.19,28.156,28.156,0,0,0,8.685-2.856,20.064,20.064,0,0,0,4.284-3.332,6.947,6.947,0,0,0,1.905-2.975l.238-1.191h28.444a37.326,37.326,0,0,1-1.548,11.068,27.87,27.87,0,0,1-5.475,9.521A31.1,31.1,0,0,1,603.4,78.439a63.1,63.1,0,0,1-16.185,5,133.321,133.321,0,0,1-23.2,1.786q-16.185,0-27.135-2.38-10.946-2.5-17.613-7.736a30.4,30.4,0,0,1-9.4-12.853q-2.856-7.5-2.856-18.446,0-11.782,3.57-20.112a31.006,31.006,0,0,1,10.946-13.448,47.991,47.991,0,0,1,17.5-7.378A113.8,113.8,0,0,1,563.295.608Z"/><polygon class="cls-1" points="703.252 1.304 730.979 1.304 730.979 77.688 703.252 84.848 703.252 55.81 653.505 55.81 653.505 77.688 625.778 84.848 625.778 1.304 653.505 1.304 653.505 30.223 703.252 30.223 703.252 1.304"/><path class="cls-1" d="M793.153,62.127a23.3,23.3,0,0,0,11.187-2.5,16.415,16.415,0,0,0,6.784-6.784,20.518,20.518,0,0,0,2.142-9.52q0-8.57-4.879-13.686Q803.628,24.4,793.153,24.4H765.307V62.127Zm1.9,22.73H737.577V1.552H794.7a97.28,97.28,0,0,1,14.4.952,48.8,48.8,0,0,1,12.734,3.57,30.215,30.215,0,0,1,10.711,7.141,31.77,31.77,0,0,1,6.9,12.02,53.138,53.138,0,0,1,2.737,17.97,45.863,45.863,0,0,1-2.856,16.661,34.122,34.122,0,0,1-7.5,12.02A42.161,42.161,0,0,1,820.883,79.5a51.991,51.991,0,0,1-12.734,4.164A70.436,70.436,0,0,1,795.058,84.857Z"/><path class="cls-1" d="M904.163,63.312q12.613,0,19.518-5.117t6.9-15.59q0-10.116-7.259-15.352Q916.066,21.9,903.806,21.9A40.372,40.372,0,0,0,892.5,23.326a20.426,20.426,0,0,0-8.091,4.046,17.329,17.329,0,0,0-4.641,6.546,22.892,22.892,0,0,0-1.547,8.687q0,9.4,6.546,15.114Q891.31,63.313,904.163,63.312ZM903.092,0a135.471,135.471,0,0,1,19.994,1.309,67.216,67.216,0,0,1,16.066,4.166,33.666,33.666,0,0,1,12.017,7.854,31.932,31.932,0,0,1,7.379,12.139,50.5,50.5,0,0,1,2.618,17.137,53.568,53.568,0,0,1-2.38,16.9,33.256,33.256,0,0,1-6.664,12.139A31.66,31.66,0,0,1,940.7,79.616,64.932,64.932,0,0,1,924.752,83.9a145.279,145.279,0,0,1-20.827,1.31q-29.512,0-42.961-10.711-13.328-10.83-13.329-33.441,0-20.944,13.686-30.942Q875.007,0,903.092,0Z"/><path class="cls-1" d="M1013.149,35.953h68.072V77.705l-22.253,7.16V76.178a34.579,34.579,0,0,1-12.853,6.9q-7.38,2.142-21.541,2.142a111.587,111.587,0,0,1-22.49-2.024,62.115,62.115,0,0,1-16.3-5.474,35.141,35.141,0,0,1-10.592-8.806,35.5,35.5,0,0,1-5.831-11.425,48.481,48.481,0,0,1-1.786-13.686,40.779,40.779,0,0,1,2.976-15.828,35.941,35.941,0,0,1,8.093-12.258A48.706,48.706,0,0,1,990.9,7.273a61.138,61.138,0,0,1,15.353-5A89.718,89.718,0,0,1,1023.86.608a133.571,133.571,0,0,1,21.9,1.548,50.776,50.776,0,0,1,15.352,4.76,35.577,35.577,0,0,1,10,7.378,39.1,39.1,0,0,1,6.9,10.116L1052.066,33.1q-6.071-8.687-28.444-8.687a60.057,60.057,0,0,0-14.279,1.428,18.981,18.981,0,0,0-8.688,4.284,15.172,15.172,0,0,0-4.165,6.069,23.739,23.739,0,0,0-1.19,7.974,22.631,22.631,0,0,0,1.071,7.379,14.2,14.2,0,0,0,3.928,5.593q2.973,2.617,8.806,4.046a67.668,67.668,0,0,0,14.517,1.309,95.548,95.548,0,0,0,10.354-.476,25.4,25.4,0,0,0,6.9-1.785,19.875,19.875,0,0,0,3.689-2.023,24,24,0,0,0,2.975-2.618h-34.394Z"/><polygon class="cls-2" points="0 84.856 0 1.312 27.728 1.312 27.728 70.534 0 84.856"/><polygon class="cls-2" points="35.191 1.312 145.51 1.312 145.51 28.922 104.215 28.922 104.215 77.695 76.605 84.856 76.605 28.922 35.191 28.922 35.191 1.312"/></svg>