<svg width="198" height="40" viewBox="0 0 198 40" fill="none" xmlns="http://www.w3.org/2000/svg">
<g clip-path="url(#clip0)">
<path d="M24.5261 0.321533V0.576575L24.3396 0.598753C23.704 0.64588 23.0938 1.19755 22.8142 1.91277L17.766 16.7662H17.3649L11.2969 2.13178H11.2941L11.1698 1.77416C10.8421 1.03676 10.3731 0.715185 9.76294 0.623702V0.368661H13.8676L13.9156 0.598753L13.8252 0.609841L11.4014 0.623702C12.0116 0.715185 12.4805 1.03953 12.8082 1.77416L12.8901 2.0098L12.9297 2.13178H12.9438L18.0485 14.6954L22.2011 2.37296C22.5062 1.38051 22.0853 0.64588 21.1474 0.598753L20.865 0.576575V0.321533H24.5261Z" fill="black"/>
<path d="M31.4981 1.93494V14.8561C31.4981 15.5714 31.9444 16.1009 32.5772 16.1452L32.7665 16.1674V16.4224H28.707V16.1674L28.8935 16.1452C29.5263 16.0981 29.9726 15.5686 29.9726 14.8561V1.93494C29.9726 1.22249 29.5263 0.690227 28.8935 0.645872L28.707 0.623694V0.368652H32.7665V0.620922L32.5772 0.6431C31.9444 0.690227 31.4981 1.21972 31.4981 1.93494Z" fill="black"/>
<path d="M48.3601 13.6807C48.2443 14.4403 48.0579 15.4993 47.9166 16.2589L47.8912 16.4197H37.4474V16.1674L37.6338 16.1424C38.2694 16.0953 38.7158 15.5686 38.7158 14.8534V1.93494C38.7158 1.22249 38.2694 0.690227 37.6338 0.645872L37.4474 0.623694V0.368652H41.5097V0.623694L41.4871 0.645872L41.3006 0.670822C40.665 0.717949 40.2215 1.24467 40.2215 1.95989V15.211C40.1537 16.0121 39.4248 16.0759 39.4248 16.0759H40.2215V16.0787H45.0098C46.0183 16.0787 47.1228 15.3413 47.6595 14.3516L48.0833 13.5698C48.0776 13.5643 48.2669 13.6364 48.3601 13.6807Z" fill="black"/>
<path d="M62.8153 13.6807C62.6995 14.4403 62.5131 15.4993 62.3718 16.2589L62.3464 16.4197H51.9026V16.1674L52.089 16.1424C52.7246 16.0953 53.171 15.5686 53.171 14.8534V1.93494C53.171 1.22249 52.7246 0.690227 52.089 0.645872L51.9026 0.623694V0.368652H55.9648V0.623694L55.9422 0.645872L55.7558 0.670822C55.1202 0.717949 54.6767 1.24467 54.6767 1.95989V15.211C54.6061 16.0121 53.8772 16.0759 53.8772 16.0759H54.6767V16.0787H59.4649C60.4734 16.0787 61.578 15.3413 62.1147 14.3516L62.5385 13.5698C62.5328 13.5643 62.7221 13.6364 62.8153 13.6807Z" fill="black"/>
<path d="M80.1293 16.1674V16.4225H75.6942L75.6461 16.1674L76.0444 16.1453C76.7733 16.0981 77.1236 15.5686 76.8411 14.8562L75.245 10.6868H68.838L67.4058 14.7176C67.2193 15.5243 67.6176 16.1009 68.4397 16.1453L68.7222 16.1674V16.4225H65.1543V16.1674C65.9057 16.076 66.4933 15.7544 66.8436 15.017L72.2675 0H72.6432L78.5332 14.9699C78.9315 15.7987 79.4259 16.1674 80.1293 16.1674ZM75.1066 10.3181L71.937 1.93499L68.9567 10.3181H75.1066Z" fill="black"/>
<path d="M110.181 16.1675V16.4225H106.144V16.1453L106.215 16.1675L106.401 16.1453C106.963 16.0982 107.387 15.638 107.432 15.017L106.941 1.52197L100.653 16.5362H100.277C98.1412 11.768 96.0281 6.97765 93.8925 2.1873L93.4235 14.5762C93.4009 15.4523 94.0111 16.0954 94.901 16.1425L95.2287 16.1647V16.4198H91.641V16.1647L91.8303 16.1425C92.4405 16.0954 92.8868 15.5437 92.932 14.8535L93.4235 1.74929C93.3755 1.1505 92.9546 0.690314 92.3896 0.643186L92.2003 0.621009V0.368739H94.6411L100.929 14.762L100.952 14.7842L106.842 0.365967H109.447V0.618237L109.283 0.640414C108.673 0.687541 108.249 1.21703 108.274 1.92948L108.867 14.9699C108.938 15.6158 109.407 16.0982 109.995 16.1453L110.181 16.1675Z" fill="black"/>
<path d="M125.1 13.8665C124.984 14.579 124.795 15.6158 124.676 16.3282H124.653L124.628 16.4918H114.212V16.2368L114.402 16.2146C115.034 16.1675 115.481 15.638 115.481 14.9255V2.00431C115.481 1.28909 115.034 0.759598 114.402 0.715243L114.212 0.690293V0.440796H124.515V3.06606H124.348L124.184 2.69736C123.69 1.61343 122.495 0.809498 121.342 0.809498H116.981V0.820587H116.195C116.195 0.820587 116.862 0.87603 116.981 1.58571V7.73998H120.549C121.487 7.73998 122.405 7.30475 122.684 6.68101L122.778 6.49527H122.964V9.55854L122.729 9.53359L122.636 9.35063C122.331 8.63818 121.438 8.13086 120.501 8.13086H116.933V8.14472H116.153C116.153 8.14472 116.803 8.20294 116.933 8.88767V16.1231H121.487C122.639 16.1231 123.975 15.3164 124.679 14.2352L124.939 13.8665H125.1Z" fill="black"/>
<path d="M143.193 8.38315C143.193 13.0377 140.049 16.4225 135.685 16.4225H128.645V16.1702L128.834 16.1453C129.467 16.0982 129.913 15.5715 129.913 14.8562V1.93503C129.913 1.22257 129.467 0.69031 128.834 0.645955L128.645 0.623777V0.368735L134.631 0.346558C139.603 0.346558 143.193 3.73141 143.193 8.38315ZM141.716 8.36097C141.716 3.91437 138.733 0.715259 134.628 0.715259H130.639C130.639 0.715259 131.368 0.776248 131.433 1.58018V16.0316L135.682 16.0067C139.182 16.0067 141.716 12.8076 141.716 8.36097Z" fill="black"/>
<path d="M150.332 1.93494V14.8561C150.332 15.5714 150.778 16.1009 151.411 16.1452L151.6 16.1674V16.4224H147.541V16.1674L147.727 16.1452C148.36 16.0981 148.806 15.5686 148.806 14.8561V1.93494C148.806 1.22249 148.36 0.690227 147.727 0.645872L147.541 0.623694V0.368652H151.6V0.620922L151.411 0.6431C150.778 0.690227 150.332 1.21972 150.332 1.93494Z" fill="black"/>
<path d="M158.38 8.45243C158.38 12.9656 161.267 16.2146 165.256 16.2146C165.985 16.2146 166.734 16.1674 167.485 16.076C169.152 15.8237 170.793 14.6705 171.403 13.3343C171.496 13.1485 171.592 12.8741 171.686 12.6883H171.898V15.0419L171.92 15.0835C170.395 15.9595 167.601 16.5805 165.301 16.5805C160.349 16.5805 156.759 13.1485 156.759 8.42748C156.759 3.7092 160.349 0.277222 165.301 0.277222C167.601 0.277222 170.395 0.898193 171.92 1.77421V4.16938L171.638 4.19156C171.544 4.0086 171.448 3.73138 171.355 3.54564C170.816 2.37023 169.643 1.35838 168.493 1.01185C167.437 0.803939 166.287 0.690279 165.256 0.690279C161.267 0.690279 158.38 3.93929 158.38 8.45243Z" fill="black"/>
<path d="M189.429 16.1674V16.4225H184.994L184.946 16.1674L185.344 16.1453C186.073 16.0981 186.423 15.5686 186.144 14.8562L184.548 10.6868H178.141L176.708 14.7176C176.519 15.5243 176.92 16.1009 177.742 16.1453L178.025 16.1674V16.4225H174.457V16.1674C175.208 16.076 175.796 15.7544 176.146 15.017L181.567 0H181.943L187.833 14.9699C188.234 15.7987 188.726 16.1674 189.429 16.1674ZM184.406 10.3181L181.24 1.93499L178.259 10.3181H184.406Z" fill="black"/>
<path d="M48.5918 32.8588H46.5974L46.3629 33.4049C46.2076 33.7653 46.1313 33.9871 46.1313 34.0675C46.1313 34.1201 46.1454 34.1562 46.1737 34.1784C46.2019 34.2005 46.2754 34.2199 46.394 34.2338L46.7245 34.2698V34.4833C46.5042 34.4667 46.2556 34.4611 45.9787 34.4611C45.6482 34.4611 45.3573 34.4694 45.1058 34.4833V34.2698L45.2104 34.2671C45.3714 34.2615 45.4759 34.2477 45.5211 34.2172C45.5691 34.1894 45.6171 34.1201 45.6708 34.0093C45.8347 33.6849 46.0013 33.3328 46.1708 32.9558L47.12 30.849C47.3743 30.289 47.5466 29.8842 47.637 29.632H47.8715L49.6173 33.6156C49.7359 33.8873 49.8122 34.0481 49.8517 34.1035C49.8913 34.159 49.9365 34.1978 49.9873 34.2227C50.0382 34.2449 50.1512 34.2615 50.3292 34.2726V34.4861C50.0297 34.4694 49.7444 34.4639 49.4732 34.4639C49.219 34.4639 48.8828 34.4722 48.4619 34.4861V34.2726L48.8037 34.2532C48.9252 34.2449 48.9986 34.231 49.0212 34.2172C49.0551 34.1922 49.0721 34.1617 49.0721 34.1229C49.0721 34.0813 49.0382 33.976 48.9675 33.8041L48.5918 32.8588ZM46.7274 32.5816H48.4647L47.5974 30.5496L46.7274 32.5816Z" fill="black"/>
<path d="M56.0722 32.881C56.0383 33.0695 56.0213 33.2636 56.0213 33.4604C56.0213 33.6683 56.0383 33.9012 56.0722 34.1618C55.7671 34.2782 55.4196 34.3725 55.0354 34.4445C54.6513 34.5166 54.2812 34.5499 53.9309 34.5499C53.3885 34.5499 52.9111 34.4445 52.5015 34.2366C52.0919 34.0287 51.7755 33.7376 51.5551 33.3662C51.3348 32.9947 51.2246 32.5733 51.2246 32.102C51.2246 31.6141 51.3433 31.1817 51.5805 30.8019C51.8178 30.4221 52.1484 30.1255 52.5693 29.9148C52.993 29.7041 53.5269 29.5988 54.1767 29.5988C54.4422 29.5988 54.6852 29.6154 54.9083 29.6487C55.1315 29.6819 55.4225 29.7512 55.7812 29.851L56.075 29.9286C56.0157 30.1671 55.9649 30.5025 55.931 30.9294H55.7134V30.7049C55.7134 30.4831 55.6937 30.3528 55.6569 30.3168C55.5891 30.2447 55.4055 30.156 55.1089 30.0479C54.8123 29.9397 54.4733 29.8871 54.0919 29.8871C53.4168 29.8871 52.8998 30.0645 52.541 30.4221C52.1512 30.8102 51.9534 31.3231 51.9534 31.9607C51.9534 32.5733 52.1286 33.0917 52.4817 33.5103C52.8941 34.0065 53.4591 34.256 54.1738 34.256C54.5467 34.256 54.9507 34.1756 55.3829 34.0149C55.397 33.8236 55.4027 33.6212 55.4027 33.4077C55.4027 33.1305 55.397 32.9697 55.3886 32.9282C55.3801 32.8866 55.3631 32.8589 55.3377 32.8478C55.3123 32.8367 55.1936 32.82 54.9761 32.8006L54.5693 32.7674V32.5539C55.0948 32.5761 55.4874 32.5872 55.7417 32.5872C55.962 32.5872 56.1513 32.5761 56.3095 32.5539V32.723L56.0722 32.881Z" fill="black"/>
<path d="M58.7645 32.1796V33.0113L58.7673 33.4881C58.7673 33.7875 58.7701 34.0037 58.7786 34.1423C59.1147 34.1673 59.4763 34.1784 59.8605 34.1784C60.1176 34.1784 60.3351 34.1673 60.5103 34.1451C60.6233 34.1312 60.7419 34.1035 60.869 34.0564C60.9255 33.8568 60.9849 33.6101 61.0442 33.3107H61.273C61.2108 33.8069 61.1798 34.1368 61.1798 34.3031L61.1854 34.4556C60.9199 34.4778 60.66 34.4889 60.4057 34.4889L59.8634 34.4778C59.2645 34.4611 58.8266 34.4556 58.5469 34.4556C58.2786 34.4556 57.9198 34.4639 57.4735 34.4778V34.2643H57.5808C57.7814 34.2643 57.9057 34.2449 57.9593 34.2061C58.0102 34.1673 58.0469 34.0786 58.0639 33.9344C58.0808 33.793 58.0893 33.4798 58.0893 32.9946V31.1373C58.0893 30.8323 58.0808 30.5828 58.0667 30.3888C58.0526 30.1947 58.0356 30.0783 58.0187 30.0423C58.0017 30.0062 57.9763 29.9757 57.9452 29.9563C57.9141 29.9369 57.8153 29.9175 57.6486 29.9009L57.3831 29.8732V29.6597H57.7559L58.1204 29.6708C58.3238 29.6791 58.4791 29.6819 58.5865 29.6819L59.9114 29.6625L60.5385 29.6597C60.7532 29.6569 60.9679 29.6652 61.1854 29.6819C61.0978 29.9508 61.0498 30.2973 61.0414 30.727H60.8069C60.8069 30.4775 60.7956 30.2724 60.7702 30.1088C60.499 30.009 60.1656 29.9591 59.7701 29.9591C59.4537 29.9591 59.126 29.973 58.7814 30.0007C58.7842 30.2114 58.7814 30.4248 58.7757 30.6355L58.7701 31.1567V31.8414C58.9989 31.8581 59.1995 31.8636 59.3746 31.8636C59.9227 31.8636 60.2306 31.8442 60.304 31.8082C60.3775 31.7721 60.4114 31.6557 60.4114 31.4616V31.2426H60.6459C60.6289 31.5836 60.6204 31.8553 60.6204 32.0576C60.6204 32.2711 60.6289 32.5234 60.6459 32.8145H60.4114V32.6176C60.4114 32.4014 60.369 32.2683 60.2814 32.2212C60.1967 32.1741 59.8916 32.1491 59.369 32.1491C59.1712 32.1574 58.9735 32.1658 58.7645 32.1796Z" fill="black"/>
<path d="M62.3775 33.1084L62.3323 33.0612C62.4001 32.8894 62.4594 32.7258 62.5074 32.5706C62.8436 32.5872 63.1233 32.5955 63.3464 32.5955C63.53 32.5955 63.869 32.5872 64.3606 32.5706L64.3888 32.6205C64.3126 32.7923 64.2561 32.9531 64.2193 33.1084C63.9029 33.089 63.6148 33.0779 63.3493 33.0779C63.0526 33.0779 62.7306 33.089 62.3775 33.1084Z" fill="black"/>
<path d="M66.6912 32.1796V33.3412C66.6912 33.8041 66.7166 34.073 66.7674 34.1506C66.8183 34.2283 66.9454 34.2671 67.1545 34.2671H67.4002V34.4805C66.9624 34.4639 66.6149 34.4584 66.355 34.4584C66.0923 34.4584 65.7533 34.4667 65.338 34.4805V34.2671H65.6149C65.8126 34.2671 65.9341 34.231 65.9793 34.1562C66.0245 34.0813 66.0471 33.8097 66.0471 33.3412V30.788C66.0471 30.3306 66.0216 30.0644 65.9736 29.9896C65.9228 29.9147 65.7957 29.8787 65.5894 29.8787H65.3408V29.6652C65.7222 29.6819 66.0668 29.6874 66.3719 29.6874L68.3551 29.6514C68.5613 29.6514 68.7562 29.6625 68.9426 29.6819C68.8692 29.923 68.8296 30.264 68.8212 30.7076H68.6008C68.5867 30.4719 68.5584 30.264 68.5189 30.0783C68.2025 29.9979 67.8861 29.9563 67.5641 29.9563C67.2844 29.9563 67.0076 29.9702 66.7392 30.0007C66.7109 30.2945 66.6968 30.5606 66.6968 30.7991V31.8747C66.8352 31.8802 66.9708 31.8858 67.1036 31.8858C67.4482 31.8858 67.7505 31.8774 68.0104 31.858C68.098 31.8525 68.1573 31.8359 68.1884 31.8026C68.2195 31.7693 68.2449 31.6834 68.2647 31.5392L68.2986 31.2814H68.5161C68.4963 31.6945 68.4878 31.9606 68.4878 32.077L68.4906 32.8754H68.2618V32.6148C68.2618 32.4069 68.2223 32.2822 68.1404 32.2351C68.0584 32.1907 67.7505 32.1685 67.2166 32.1685C67.0669 32.1713 66.8917 32.1741 66.6912 32.1796Z" fill="black"/>
<path d="M72.5276 32.0383C72.7535 32.3571 73.0332 32.7258 73.3666 33.1472L74.0276 33.9899C74.1462 34.1341 74.2225 34.2172 74.2621 34.2367C74.3016 34.2561 74.3412 34.2671 74.3835 34.2671H74.4739V34.4806C74.2818 34.464 74.1152 34.4584 73.9739 34.4584C73.844 34.4584 73.7056 34.4667 73.5615 34.4806L72.3411 32.8644C72.1123 32.5678 71.8693 32.2767 71.6095 31.9912L71.6433 31.8775C71.7761 31.8886 71.875 31.8941 71.94 31.8941C72.3242 31.8941 72.6236 31.7971 72.8411 31.6031C73.0586 31.409 73.166 31.1484 73.166 30.8241C73.166 30.533 73.0728 30.3057 72.8891 30.1421C72.7055 29.9786 72.44 29.8982 72.0925 29.8982C71.8524 29.8982 71.6094 29.9425 71.3637 30.0312C71.3354 30.3888 71.3213 30.7742 71.3213 31.1817V32.8173C71.3213 33.6129 71.3411 34.0565 71.3806 34.1424C71.4202 34.2283 71.5473 34.2727 71.7592 34.2727H72.0275V34.4861C71.6462 34.4695 71.3298 34.464 71.0784 34.464C70.8806 34.464 70.5218 34.4723 70.0049 34.4861V34.2727H70.2648C70.4625 34.2727 70.5783 34.2311 70.6179 34.1452C70.6546 34.062 70.6744 33.6157 70.6744 32.809V31.1817C70.6744 30.4831 70.6518 30.0922 70.6094 30.0063C70.567 29.9231 70.4286 29.8815 70.1942 29.8815H70.0077V29.6681C70.4343 29.6847 70.762 29.6902 70.988 29.6902C71.1405 29.6902 71.358 29.6847 71.6433 29.6736C71.9739 29.6625 72.2112 29.657 72.3581 29.657C72.7564 29.657 73.0586 29.6986 73.262 29.7817C73.4683 29.8649 73.6236 29.9841 73.731 30.1393C73.8383 30.2946 73.892 30.4803 73.892 30.6966C73.892 31.0154 73.7762 31.2953 73.5417 31.5393C73.3101 31.7805 72.9711 31.9496 72.5276 32.0383Z" fill="black"/>
<path d="M75.4033 34.2698H75.6208C75.8355 34.2698 75.9627 34.2199 76.005 34.1173C76.0474 34.0148 76.07 33.5296 76.07 32.6592V31.5115C76.07 30.6077 76.0502 30.1115 76.0135 30.02C75.9768 29.9286 75.8666 29.8814 75.683 29.8814H75.4033V29.668C75.7847 29.6846 76.1632 29.6901 76.5361 29.6901C76.8469 29.6901 77.1294 29.6818 77.3836 29.668V29.8814H77.1181C76.9542 29.8814 76.8525 29.9008 76.8101 29.9396C76.7678 29.9785 76.7452 30.0755 76.7367 30.2307C76.7254 30.4719 76.7197 30.9016 76.7197 31.5198V32.6869C76.7197 33.5657 76.7395 34.048 76.7791 34.1367C76.8186 34.2255 76.9429 34.2698 77.1576 34.2698H77.3864V34.4833C77.1039 34.4666 76.7932 34.4611 76.4598 34.4611C76.07 34.4611 75.7197 34.4694 75.4061 34.4833V34.2698H75.4033Z" fill="black"/>
<path d="M79.8102 32.1796V33.0113L79.8131 33.4881C79.8131 33.7875 79.8159 34.0037 79.8244 34.1423C80.1605 34.1673 80.5221 34.1784 80.9063 34.1784C81.1634 34.1784 81.3809 34.1673 81.556 34.1451C81.669 34.1312 81.7877 34.1035 81.9148 34.0564C81.9713 33.8568 82.0306 33.6101 82.09 33.3107H82.3188C82.2566 33.8069 82.2256 34.1368 82.2256 34.3031L82.2312 34.4556C81.9657 34.4778 81.7058 34.4889 81.4515 34.4889L80.9091 34.4778C80.3102 34.4611 79.8724 34.4556 79.5927 34.4556C79.3243 34.4556 78.9656 34.4639 78.5192 34.4778V34.2643H78.6266C78.8271 34.2643 78.9514 34.2449 79.0051 34.2061C79.056 34.1673 79.0927 34.0786 79.1096 33.9344C79.1266 33.793 79.1351 33.4798 79.1351 32.9946V31.1373C79.1351 30.8323 79.1266 30.5828 79.1125 30.3888C79.0983 30.1947 79.0814 30.0783 79.0644 30.0423C79.0475 30.0062 79.0221 29.9757 78.991 29.9563C78.9599 29.9369 78.861 29.9175 78.6944 29.9009L78.4288 29.8732V29.6597H78.8017L79.1661 29.6708C79.3695 29.6791 79.5249 29.6819 79.6323 29.6819L80.9571 29.6625L81.5843 29.6597C81.799 29.6569 82.0137 29.6652 82.2312 29.6819C82.1436 29.9508 82.0956 30.2973 82.0871 30.727H81.8527C81.8527 30.4775 81.8414 30.2724 81.8159 30.1088C81.5447 30.009 81.2114 29.9591 80.8159 29.9591C80.4995 29.9591 80.1718 29.973 79.8272 30.0007C79.83 30.2114 79.8272 30.4248 79.8215 30.6355L79.8159 31.1567V31.8414C80.0447 31.8581 80.2453 31.8636 80.4204 31.8636C80.9684 31.8636 81.2764 31.8442 81.3498 31.8082C81.4233 31.7721 81.4572 31.6557 81.4572 31.4616V31.2426H81.6916C81.6747 31.5836 81.6662 31.8553 81.6662 32.0576C81.6662 32.2711 81.6747 32.5234 81.6916 32.8145H81.4572V32.6176C81.4572 32.4014 81.4148 32.2683 81.3272 32.2212C81.2425 32.1741 80.9374 32.1491 80.4148 32.1491C80.217 32.1574 80.0164 32.1658 79.8102 32.1796Z" fill="black"/>
<path d="M84.3669 30.4304V32.7701C84.3669 33.3024 84.3782 33.6738 84.3979 33.8845C84.4149 34.0453 84.4403 34.1423 84.4799 34.1784C84.5194 34.2144 84.6296 34.2394 84.8104 34.2532L85.0336 34.2699V34.4833C84.7821 34.4667 84.5561 34.4611 84.3527 34.4611C84.2115 34.4611 83.8895 34.4695 83.3838 34.4833V34.2699H83.6324C83.7821 34.2699 83.8781 34.2505 83.9262 34.2089C83.9714 34.1673 83.9996 34.0869 84.0137 33.9677C84.0392 33.721 84.0505 33.3828 84.0505 32.9558V31.2731C84.0505 30.9571 84.0476 30.6438 84.0392 30.3361C84.0335 30.2058 84.0166 30.1171 83.9855 30.0672C83.9544 30.0201 83.9092 29.9757 83.8499 29.9369C83.7906 29.8981 83.7058 29.8787 83.5985 29.8787H83.3838V29.6652C83.6748 29.6819 83.8979 29.6874 84.0533 29.6874C84.22 29.6874 84.4008 29.6791 84.5985 29.6652C84.8273 29.9369 85.0392 30.2031 85.2426 30.4636C85.4432 30.7215 85.6522 30.982 85.8697 31.2426L87.0477 32.6648C87.4743 33.1748 87.7794 33.5297 87.9687 33.7265V31.5531C87.9687 30.6438 87.9517 30.1476 87.9178 30.0617C87.8839 29.9757 87.7511 29.9231 87.5195 29.9009L87.2596 29.8759V29.6625C87.6297 29.6791 87.9178 29.6847 88.1212 29.6847C88.3359 29.6847 88.6099 29.6763 88.9489 29.6625V29.8759H88.6834C88.4687 29.8759 88.3472 29.9452 88.3133 30.0866C88.2935 30.1781 88.2822 30.6743 88.2822 31.5697V33.0972C88.2822 33.5075 88.2992 33.9982 88.3387 34.5693C88.0252 34.5221 87.8444 34.4861 87.7935 34.4667C87.7427 34.4445 87.6946 34.4085 87.6494 34.3613C87.3952 34.0841 87.1268 33.7764 86.8472 33.4382L84.3669 30.4304Z" fill="black"/>
<path d="M90.5365 34.1423C90.5732 33.793 90.593 33.1803 90.593 32.3071V31.3258C90.593 30.9238 90.5789 30.5773 90.5506 30.2862C90.5337 30.1171 90.5139 30.02 90.4856 29.9923C90.4602 29.9646 90.3641 29.9397 90.2003 29.9175L89.9235 29.8759V29.6624C90.302 29.6735 90.5591 29.6791 90.689 29.6791L91.6156 29.6708L92.3699 29.6569C92.6721 29.6513 92.9857 29.6818 93.3049 29.7456C93.6241 29.8094 93.9151 29.9369 94.175 30.1254C94.4349 30.3167 94.6326 30.5551 94.7682 30.8434C94.9038 31.1317 94.9716 31.4644 94.9716 31.8386C94.9716 32.601 94.7089 33.233 94.1863 33.7292C93.6637 34.2282 92.9801 34.4777 92.1354 34.4777L91.7116 34.4666C91.2964 34.45 91.0337 34.4417 90.9207 34.4417C90.7342 34.4417 90.4969 34.4556 90.2116 34.4833V34.3197L90.5365 34.1423ZM91.2794 34.1257C91.5902 34.17 91.8642 34.1922 92.1015 34.1922C92.7456 34.1922 93.2456 34.0286 93.6015 33.7043C94.0309 33.3106 94.2456 32.734 94.2456 31.9772C94.2456 31.3174 94.0677 30.8157 93.7089 30.4719C93.3501 30.1282 92.8275 29.9535 92.1382 29.9535C91.8981 29.9535 91.61 29.9785 91.2794 30.0256C91.2512 30.2418 91.2371 30.4885 91.2371 30.763V32.9752C91.2399 33.3883 91.2512 33.7708 91.2794 34.1257Z" fill="black"/>
<path d="M97.4379 34.1507C97.6639 34.1618 97.8842 34.1673 98.0961 34.1673C98.5283 34.1673 98.8673 34.1562 99.1102 34.1341C99.2797 34.1147 99.4549 34.0842 99.6385 34.037L99.8447 33.2414H100.068C100.011 33.6683 99.9662 34.0648 99.9323 34.4362C99.7261 34.4695 99.4436 34.4861 99.0848 34.4861L97.4435 34.4584C97.2232 34.4584 96.8786 34.4695 96.4124 34.4944V34.3143C96.5961 34.2339 96.7062 34.1507 96.7373 34.0592C96.7712 33.9677 96.7882 33.6101 96.7882 32.9864V31.1262C96.7882 30.4498 96.7712 30.0728 96.7373 29.9952C96.7034 29.9176 96.6102 29.8787 96.4548 29.8787H96.0791V29.6653C96.6271 29.6819 96.9887 29.6875 97.1695 29.6875C97.4096 29.6875 97.7317 29.6791 98.1413 29.6653V29.8787H97.7147C97.5933 29.8787 97.517 29.912 97.4831 29.9813C97.4492 30.0506 97.4351 30.3362 97.4351 30.8379V32.9947L97.4464 33.9483L97.4379 34.1507Z" fill="black"/>
<path d="M102.805 32.0993C102.946 31.8914 103.167 31.531 103.472 31.0154L104.263 29.6653H104.797V29.7512C104.517 30.0617 104.172 30.5274 103.766 31.1512C103.359 31.7749 103.116 32.1935 103.034 32.4042C103.006 32.4791 102.992 32.6676 102.992 32.9753C102.992 33.3828 103.003 33.7072 103.023 33.9456C103.037 34.0731 103.059 34.1507 103.093 34.1757C103.127 34.2006 103.246 34.2228 103.446 34.2422L103.709 34.2699V34.4834C103.308 34.4667 102.994 34.4612 102.768 34.4612L101.655 34.4834V34.2699H101.949C102.147 34.2699 102.263 34.2311 102.302 34.1507C102.342 34.0731 102.362 33.7155 102.362 33.0834C102.362 32.8977 102.356 32.6981 102.345 32.4791C102.048 31.944 101.774 31.4839 101.523 31.093C101.271 30.7021 101.062 30.4193 100.887 30.2391C100.794 30.1393 100.712 30.0756 100.641 30.0423C100.571 30.0118 100.452 29.9952 100.288 29.9952V29.7817C100.381 29.7623 100.568 29.7263 100.842 29.6736L101.113 29.6182C101.218 29.657 101.302 29.7041 101.367 29.7651C101.483 29.8704 101.658 30.1144 101.896 30.4914C102.082 30.7825 102.384 31.3203 102.805 32.0993Z" fill="black"/>
<path d="M113.153 30.3971L112.128 32.4901C111.743 33.2746 111.427 33.9621 111.181 34.5498H111.043C110.958 34.3502 110.712 33.8318 110.311 33.003L109.077 30.4941V33.1111C109.077 33.721 109.102 34.0647 109.15 34.1479C109.201 34.231 109.353 34.2726 109.613 34.2726H109.74V34.4861C109.421 34.4694 109.159 34.4639 108.961 34.4639C108.817 34.4639 108.526 34.4722 108.094 34.4861V34.2726H108.317C108.469 34.2726 108.571 34.2504 108.619 34.2089C108.67 34.1645 108.701 34.0869 108.712 33.976C108.743 33.66 108.757 33.319 108.757 32.9531V31.0375C108.757 30.5745 108.746 30.2696 108.726 30.1199C108.718 30.0423 108.684 29.984 108.625 29.9452C108.565 29.9036 108.449 29.8842 108.274 29.8842H108.091V29.6708C108.492 29.6874 108.743 29.693 108.845 29.693C108.975 29.693 109.161 29.6846 109.404 29.6708C109.684 30.2779 110.003 30.946 110.368 31.6778L111.274 33.5103L112.113 31.8137C112.407 31.2204 112.743 30.5052 113.122 29.6708C113.41 29.6874 113.611 29.693 113.729 29.693C113.865 29.693 114.111 29.6846 114.464 29.6708V29.8842H114.238C114.034 29.8842 113.91 29.9175 113.865 29.9868C113.82 30.0561 113.797 30.3028 113.797 30.7298V33.2026C113.797 33.7542 113.82 34.0675 113.868 34.1506C113.916 34.231 114.049 34.2726 114.263 34.2726H114.461V34.4861C114.142 34.4694 113.837 34.4639 113.543 34.4639C113.221 34.4639 112.885 34.4722 112.532 34.4861V34.2726H112.76C112.941 34.2726 113.051 34.2338 113.091 34.1562C113.128 34.0786 113.147 33.7431 113.147 33.1527V30.3971H113.153Z" fill="black"/>
<path d="M116.848 32.1796V33.0113L116.851 33.4881C116.851 33.7875 116.854 34.0037 116.862 34.1423C117.198 34.1673 117.56 34.1784 117.944 34.1784C118.201 34.1784 118.419 34.1673 118.594 34.1451C118.707 34.1312 118.825 34.1035 118.953 34.0564C119.009 33.8568 119.068 33.6101 119.128 33.3107H119.357C119.294 33.8069 119.263 34.1368 119.263 34.3031L119.272 34.4556C119.006 34.4778 118.746 34.4889 118.492 34.4889L117.95 34.4778C117.351 34.4611 116.913 34.4556 116.633 34.4556C116.365 34.4556 116.006 34.4639 115.56 34.4778V34.2643H115.667C115.868 34.2643 115.992 34.2449 116.046 34.2061C116.097 34.1673 116.131 34.0786 116.15 33.9344C116.167 33.793 116.176 33.4798 116.176 32.9946V31.1373C116.176 30.8323 116.167 30.5828 116.153 30.3888C116.139 30.1947 116.122 30.0783 116.105 30.0423C116.088 30.0062 116.063 29.9757 116.032 29.9563C116.001 29.9369 115.902 29.9175 115.735 29.9009L115.469 29.8732V29.6597H115.842L116.207 29.6708C116.41 29.6791 116.566 29.6819 116.673 29.6819L117.998 29.6625L118.625 29.6597C118.84 29.6569 119.054 29.6652 119.272 29.6819C119.184 29.9508 119.136 30.2973 119.128 30.727H118.893C118.893 30.4775 118.882 30.2724 118.857 30.1088C118.585 30.009 118.252 29.9591 117.857 29.9591C117.54 29.9591 117.212 29.973 116.868 30.0007C116.871 30.2114 116.868 30.4248 116.862 30.6355L116.854 31.1567V31.8414C117.083 31.8581 117.283 31.8636 117.458 31.8636C118.006 31.8636 118.314 31.8442 118.388 31.8082C118.461 31.7721 118.495 31.6557 118.495 31.4616V31.2426H118.729C118.713 31.5836 118.707 31.8553 118.707 32.0576C118.707 32.2711 118.715 32.5234 118.729 32.8145H118.495V32.6176C118.495 32.4014 118.453 32.2683 118.365 32.2212C118.277 32.1741 117.975 32.1491 117.453 32.1491C117.258 32.1574 117.057 32.1658 116.848 32.1796Z" fill="black"/>
<path d="M121.035 34.1423C121.071 33.793 121.091 33.1803 121.091 32.3071V31.3258C121.091 30.9238 121.077 30.5773 121.049 30.2862C121.032 30.1171 121.012 30.02 120.984 29.9923C120.958 29.9646 120.862 29.9397 120.698 29.9175L120.422 29.8759V29.6624C120.8 29.6735 121.057 29.6791 121.187 29.6791L122.114 29.6708L122.868 29.6569C123.17 29.6513 123.484 29.6818 123.803 29.7456C124.122 29.8094 124.413 29.9369 124.673 30.1254C124.933 30.3139 125.131 30.5551 125.266 30.8434C125.402 31.1317 125.47 31.4644 125.47 31.8386C125.47 32.601 125.207 33.233 124.684 33.7292C124.162 34.2282 123.478 34.4777 122.633 34.4777L122.21 34.4666C121.794 34.45 121.529 34.4417 121.419 34.4417C121.232 34.4417 120.995 34.4556 120.71 34.4833V34.3197L121.035 34.1423ZM121.78 34.1257C122.091 34.17 122.365 34.1922 122.602 34.1922C123.246 34.1922 123.746 34.0286 124.102 33.7043C124.532 33.3106 124.747 32.734 124.747 31.9772C124.747 31.3174 124.569 30.8157 124.21 30.4719C123.851 30.1282 123.328 29.9535 122.639 29.9535C122.399 29.9535 122.111 29.9785 121.78 30.0256C121.752 30.2418 121.738 30.4885 121.738 30.763V32.9752C121.738 33.3883 121.752 33.7708 121.78 34.1257Z" fill="black"/>
<path d="M131.848 32.0022L132.057 31.6945C132.295 31.7056 132.478 31.7111 132.608 31.7111L133.043 31.7C133.47 31.689 133.826 31.6806 134.108 31.6806C134.072 31.8747 134.046 32.0355 134.029 32.1685C133.783 32.1297 133.453 32.1048 133.035 32.0909C133.063 32.2074 133.077 32.3072 133.077 32.3875C133.077 32.5705 133.032 32.7562 132.944 32.9503C132.857 33.1416 132.704 33.3495 132.49 33.5685C132.724 33.7376 132.947 33.8596 133.159 33.9317C133.371 34.0037 133.563 34.0425 133.735 34.0425C133.823 34.0425 133.956 33.9871 134.131 33.879L134.182 34.0425C133.891 34.2449 133.687 34.4002 133.572 34.5055C133.478 34.536 133.385 34.5499 133.289 34.5499C132.936 34.5499 132.526 34.3641 132.055 33.9871C131.789 34.1978 131.549 34.3447 131.334 34.4279C131.117 34.5083 130.882 34.5499 130.622 34.5499C130.199 34.5499 129.854 34.4196 129.586 34.1562C129.317 33.8956 129.182 33.5685 129.182 33.1804C129.182 32.8505 129.281 32.5594 129.478 32.3044C129.614 32.1297 129.877 31.9274 130.264 31.6917C130.131 31.348 130.063 31.0597 130.063 30.8213C130.063 30.6383 130.091 30.4803 130.145 30.3444C130.182 30.253 130.252 30.1615 130.36 30.07C130.631 29.8427 130.803 29.7096 130.874 29.6736C130.978 29.6209 131.097 29.5959 131.235 29.5959C131.43 29.5959 131.583 29.6542 131.696 29.7706C131.809 29.887 131.863 30.045 131.863 30.2446C131.863 30.7076 131.526 31.1678 130.851 31.628C131.227 32.3127 131.704 32.9032 132.278 33.4049C132.408 33.2497 132.498 33.1055 132.549 32.9753C132.6 32.845 132.622 32.7063 132.622 32.5622C132.622 32.4042 132.594 32.2739 132.54 32.1685C132.515 32.1214 132.478 32.0909 132.43 32.0771C132.348 32.0549 132.156 32.0438 131.857 32.0466L131.848 32.0022ZM131.848 33.8125C131.303 33.3218 130.817 32.698 130.385 31.944C130.165 32.0937 130.009 32.2489 129.919 32.407C129.829 32.565 129.783 32.7368 129.783 32.9309C129.783 33.2469 129.896 33.5297 130.117 33.7764C130.337 34.0231 130.617 34.1479 130.95 34.1479C131.244 34.1479 131.54 34.0342 131.848 33.8125ZM130.741 31.3951C131.165 31.0624 131.377 30.7325 131.377 30.411C131.377 30.2696 131.34 30.1559 131.269 30.07C131.199 29.9841 131.108 29.9425 131.001 29.9425C130.871 29.9425 130.766 29.9924 130.685 30.0922C130.603 30.192 130.563 30.3472 130.563 30.5551C130.563 30.7852 130.622 31.0652 130.741 31.3951Z" fill="black"/>
<path d="M140.753 29.8925C140.688 30.1282 140.654 30.4386 140.648 30.8267H140.411V30.5551C140.411 30.3804 140.388 30.2585 140.337 30.1975C140.289 30.1337 140.162 30.0672 139.959 29.9951C139.755 29.923 139.541 29.8897 139.315 29.8897C138.947 29.8897 138.656 29.9812 138.447 30.1642C138.238 30.3472 138.131 30.58 138.131 30.8683C138.131 31.0485 138.173 31.2038 138.261 31.3341C138.349 31.4644 138.464 31.5558 138.608 31.6141C138.755 31.6723 139.063 31.7222 139.538 31.7665C140.012 31.8109 140.332 31.8719 140.498 31.9467C140.665 32.0216 140.798 32.1408 140.899 32.3043C140.998 32.4679 141.049 32.6647 141.049 32.8893C141.049 33.3439 140.857 33.732 140.47 34.0619C140.083 34.3918 139.569 34.5526 138.925 34.5526C138.704 34.5526 138.481 34.5304 138.258 34.486C138.035 34.4417 137.809 34.3779 137.58 34.292C137.623 34.0203 137.642 33.6738 137.639 33.2496H137.874V33.4188C137.874 33.6378 137.885 33.7736 137.908 33.8235C137.93 33.8734 137.984 33.9316 138.069 33.9898C138.196 34.0785 138.346 34.1451 138.521 34.1922C138.696 34.2393 138.885 34.2615 139.086 34.2615C139.521 34.2615 139.857 34.1617 140.092 33.9593C140.326 33.757 140.447 33.5047 140.447 33.1942C140.447 33.014 140.408 32.8615 140.326 32.7368C140.244 32.612 140.134 32.5178 139.987 32.4568C139.84 32.3958 139.575 32.3487 139.185 32.3182C138.665 32.2766 138.312 32.2156 138.125 32.1352C137.939 32.0548 137.792 31.9273 137.687 31.7499C137.583 31.5752 137.529 31.359 137.529 31.0984C137.529 30.6576 137.69 30.3 138.015 30.02C138.34 29.7401 138.786 29.6014 139.36 29.6014C139.589 29.6014 139.82 29.6264 140.052 29.6735C140.289 29.7206 140.521 29.7927 140.753 29.8925Z" fill="black"/>
<path d="M143.354 30.0368C143.337 30.3611 143.329 30.7077 143.329 31.0764V33.0086C143.329 33.6878 143.349 34.0676 143.391 34.148C143.434 34.2283 143.569 34.2699 143.798 34.2699H144.035V34.4834C143.628 34.4668 143.306 34.4612 143.072 34.4612C142.866 34.4612 142.498 34.4695 141.973 34.4834V34.2699H142.284C142.428 34.2699 142.521 34.2533 142.563 34.2173C142.606 34.1812 142.631 34.1119 142.643 34.0038C142.654 33.8957 142.665 33.5686 142.679 33.0197V31.2122L142.668 30.5108C142.662 30.2198 142.631 30.0423 142.572 29.9758C142.513 29.9093 142.371 29.8788 142.143 29.8788H141.97V29.6653C142.258 29.6764 142.623 29.6819 143.063 29.6819C143.323 29.6819 143.612 29.6736 143.928 29.6625C144.137 29.6542 144.295 29.6487 144.402 29.6487C144.959 29.6487 145.363 29.7485 145.617 29.9453C145.869 30.1449 145.993 30.4138 145.993 30.752C145.993 30.9987 145.919 31.2344 145.775 31.4617C145.631 31.689 145.425 31.872 145.16 32.0078C144.894 32.1464 144.612 32.2157 144.309 32.2157C144.171 32.2157 143.999 32.1936 143.792 32.152L143.725 31.8969C143.928 31.9468 144.095 31.9718 144.23 31.9718C144.547 31.9718 144.798 31.8775 144.984 31.689C145.171 31.5005 145.264 31.2427 145.264 30.9156C145.264 30.5995 145.165 30.3528 144.965 30.1754C144.767 29.998 144.47 29.9093 144.078 29.9093C143.863 29.9093 143.62 29.9509 143.354 30.0368Z" fill="black"/>
<path d="M149.727 32.8588H147.733L147.499 33.4049C147.343 33.7653 147.267 33.9871 147.267 34.0675C147.267 34.1201 147.281 34.1562 147.309 34.1784C147.338 34.2005 147.411 34.2199 147.53 34.2338L147.86 34.2698V34.4833C147.64 34.4667 147.391 34.4611 147.114 34.4611C146.784 34.4611 146.493 34.4694 146.241 34.4833V34.2698L146.346 34.2671C146.507 34.2615 146.612 34.2477 146.66 34.2172C146.708 34.1894 146.756 34.1201 146.809 34.0093C146.973 33.6849 147.14 33.3328 147.309 32.9558L148.258 30.849C148.51 30.289 148.682 29.8842 148.775 29.632H149.01L150.756 33.6156C150.872 33.8873 150.951 34.0481 150.99 34.1035C151.03 34.159 151.075 34.1978 151.126 34.2227C151.177 34.2449 151.29 34.2615 151.468 34.2726V34.4861C151.168 34.4694 150.883 34.4639 150.612 34.4639C150.36 34.4639 150.021 34.4722 149.6 34.4861V34.2726L149.942 34.2532C150.064 34.2449 150.137 34.231 150.16 34.2172C150.194 34.1922 150.21 34.1617 150.21 34.1229C150.21 34.0813 150.177 33.976 150.106 33.8041L149.727 32.8588ZM147.86 32.5816H149.597L148.73 30.5496L147.86 32.5816Z" fill="black"/>
<path d="M189.116 24.7779H8.88448C8.76866 24.7779 8.67261 24.6836 8.67261 24.57C8.67261 24.4563 8.76866 24.3621 8.88448 24.3621H189.116C189.231 24.3621 189.327 24.4563 189.327 24.57C189.327 24.6836 189.234 24.7779 189.116 24.7779Z" fill="url(#paint0_linear)"/>
</g>
<defs>
<linearGradient id="paint0_linear" x1="8.67312" y1="24.5686" x2="189.328" y2="24.5686" gradientUnits="userSpaceOnUse">
<stop stop-color="white"/>
<stop offset="0.5323" stop-color="#434040"/>
<stop offset="1" stop-color="white"/>
</linearGradient>
<clipPath id="clip0">
<rect width="198" height="40" fill="white"/>
</clipPath>
</defs>
</svg>
