<svg width="100" height="85" viewBox="0 0 100 85" fill="none" xmlns="http://www.w3.org/2000/svg">
<g clip-path="url(#clip0)">
<path d="M21.9445 67.7487L3.6042 35.9801C-5.52705 20.1619 5.88506 0.389221 24.1553 0.389221H75.8524C94.1149 0.389221 105.535 20.1619 96.4035 35.9801L78.0632 67.7487C65.5846 89.3508 34.4153 89.3508 21.9445 67.7487Z" fill="white" fill-opacity="0.16" stroke="#716F74" stroke-miterlimit="10"/>
<path d="M67.9077 45C67.9716 45.613 68 46.2261 68 46.853C68 56.8774 59.7178 65 49.4964 65C39.2751 65 31 56.8774 31 46.853C31 46.3932 31.0142 45.9404 31.0497 45.4946" stroke="#716F74" stroke-miterlimit="10"/>
<path d="M46 28.7619C47.2045 28.254 48.4535 28 49.7323 28C51.197 28 52.6245 28.3492 54 29" stroke="#716F74" stroke-miterlimit="10"/>
<path d="M64.4615 14C64.4615 14 60.9733 29.0337 63.2964 30.1918C65.6195 31.3499 79.5864 32.5079 79.5864 33.6589C79.5864 34.8099 72.6029 33.6589 72.6029 33.6589C72.6029 33.6589 83.0746 38.2841 81.9095 39.4422C80.7444 40.6003 70.2727 37.126 70.2727 37.126C70.2727 37.126 81.9095 42.9093 80.7444 44.0674C79.5793 45.2255 67.9425 39.4422 67.9425 39.4422C67.9425 39.4422 77.2491 46.3836 76.0911 47.5416C74.9332 48.6997 65.6195 42.9164 62.1241 42.9164C58.636 42.9164 58.636 42.9164 57.4708 45.2326C56.3057 47.5487 53.9827 48.6997 51.6525 47.5487C49.3222 46.3978 53.9827 45.2326 53.9827 42.9235C53.9827 40.6074 55.1478 37.1402 53.9827 32.515C52.8176 27.8898 53.9827 14.0071 53.9827 14.0071H64.4615V14Z" stroke="#716F74" stroke-miterlimit="10" stroke-linecap="round" stroke-linejoin="round"/>
<path d="M35.5385 14C35.5385 14 39.0267 29.0337 36.7036 30.1918C34.3734 31.3499 20.4136 32.5079 20.4136 33.6589C20.4136 34.8099 27.397 33.6589 27.397 33.6589C27.397 33.6589 16.9254 38.2841 18.0905 39.4422C19.2556 40.6003 29.7273 37.126 29.7273 37.126C29.7273 37.126 18.0905 42.9093 19.2556 44.0674C20.4207 45.2255 32.0575 39.4422 32.0575 39.4422C32.0575 39.4422 22.7509 46.3836 23.9089 47.5416C25.074 48.6997 34.3805 42.9164 37.8759 42.9164C41.3712 42.9164 41.364 42.9164 42.5292 45.2326C43.6943 47.5487 46.0173 48.6997 48.3475 47.5487C50.6778 46.3907 46.0173 45.2326 46.0173 42.9235C46.0173 40.6145 44.8522 37.1402 46.0173 32.515C47.1824 27.8898 46.0173 14.0071 46.0173 14.0071H35.5385V14Z" stroke="#716F74" stroke-miterlimit="10" stroke-linecap="round" stroke-linejoin="round"/>
</g>
<defs>
<clipPath id="clip0">
<rect width="100" height="84.3375" fill="white"/>
</clipPath>
</defs>
</svg>
