<svg width="100" height="85" viewBox="0 0 100 85" fill="none" xmlns="http://www.w3.org/2000/svg">
<g clip-path="url(#clip0)">
<path d="M21.9445 67.7487L3.6042 35.9801C-5.52705 20.1619 5.88506 0.389221 24.1553 0.389221H75.8524C94.1149 0.389221 105.535 20.1619 96.4035 35.9801L78.0632 67.7487C65.5846 89.3508 34.4153 89.3508 21.9445 67.7487Z" fill="white" fill-opacity="0.16" stroke="#716F74" stroke-miterlimit="10"/>
<path d="M38.5022 45.088L29.371 54.2192" stroke="#716F74" stroke-miterlimit="10" stroke-linecap="round" stroke-linejoin="round"/>
<path d="M71.7966 11.7936L61.0929 22.4973" stroke="#716F74" stroke-miterlimit="10" stroke-linecap="round" stroke-linejoin="round"/>
<path d="M23.5326 49.2216L34.3764 60.0576" stroke="#716F74" stroke-miterlimit="10" stroke-linecap="round" stroke-linejoin="round"/>
<path d="M56.6372 19.8918L35.3351 41.194L42.9973 48.8561L64.2994 27.554L56.6372 19.8918Z" stroke="#716F74" stroke-miterlimit="10" stroke-linecap="round" stroke-linejoin="round"/>
<path d="M56.5914 19.9425L48.8081 27.7258L56.4703 35.3879L64.2536 27.6047L56.5914 19.9425Z" stroke="#716F74" stroke-miterlimit="10" stroke-linecap="round" stroke-linejoin="round"/>
<path d="M84.2519 41.4915C84.2519 45.4849 81.0135 48.7155 77.0279 48.7155C73.0422 48.7155 69.8038 45.4772 69.8038 41.4915C69.8038 37.5058 77.0279 31.8542 77.0279 31.8542C77.0279 31.8542 84.2519 37.5058 84.2519 41.4915Z" stroke="#716F74" stroke-miterlimit="10" stroke-linecap="round" stroke-linejoin="round"/>
<path d="M55.1691 17.5853L66.6123 29.0207" stroke="#716F74" stroke-miterlimit="10" stroke-linecap="round" stroke-linejoin="round"/>
</g>
<defs>
<clipPath id="clip0">
<rect width="100" height="84.3375" fill="white"/>
</clipPath>
</defs>
</svg>
