<svg height="512pt" viewBox="0 0 512 512" width="512pt" fill="#38a585" xmlns="http://www.w3.org/2000/svg"><path d="m352 496h-336v-480h64v32h-40c-4.414062 0-8 3.574219-8 8v400c0 4.425781 3.585938 8 8 8h288c4.414062 0 8-3.574219 8-8v-136h-16v128h-16v-107.078125c0-15.890625-9.398438-30.273437-23.496094-36.425781l-42.648437-22.015625-17.984375-23.976563c11.96875-6.917968 20.128906-19.710937 20.128906-34.503906v-72c0-22.054688-17.945312-40-40-40h-32c-22.054688 0-40 17.945312-40 40v72c0 14.792969 8.160156 27.585938 20.128906 34.503906l-17.871094 23.832032-41.136718 19.503906c-15.265625 6.121094-25.121094 20.6875-25.121094 37.128906v109.03125h-16v-384h32v16c0 8.824219 7.175781 16 16 16h176c8.824219 0 16-7.175781 16-16v-16h32v16h16v-24c0-4.425781-3.585938-8-8-8h-40v-32.015625h64.144531l-.144531 47.992187 16 .046876.144531-48.007813c0-4.28125-1.664062-8.296875-4.679687-11.320313-3.023438-3.03125-7.039063-4.695312-11.320313-4.695312h-336.144531c-8.824219 0-16 7.175781-16 16v480c0 8.824219 7.175781 16 16 16h336c8.824219 0 16-7.175781 16-16v-160h-16zm-208-344c0-13.230469 10.769531-24 24-24h32c13.230469 0 24 10.769531 24 24v24h-24c-13.230469 0-24-10.769531-24-24v-8h-16v8c0 22.054688 17.945312 40 40 40h24v32c0 13.230469-10.769531 24-24 24h-32c-13.230469 0-24-10.769531-24-24zm20.28125 111.625c1.238281.117188 2.445312.375 3.71875.375h32c1.273438 0 2.480469-.257812 3.71875-.375l16.808594 22.40625-36.527344 24.351562-36.527344-24.351562zm-84.28125 75.34375c0-9.855469 5.910156-18.609375 15.519531-22.480469l39.816407-18.855469 44.230468 29.488282c2.691406 1.800781 6.1875 1.800781 8.875 0l44.078125-29.394532 41.113281 21.210938c8.726563 3.824219 14.367188 12.445312 14.367188 21.984375v107.078125h-208zm16-258.96875v-64h176l.007812 64zm0 0"/><path d="m120 40h16v16h-16zm0 0"/><path d="m232 40h16v16h-16zm0 0"/><path d="m176 40h16v16h-16zm0 0"/><path d="m392 80c-66.167969 0-120 53.832031-120 120s53.832031 120 120 120 120-53.832031 120-120-53.832031-120-120-120zm0 224c-6.855469 0-22.320312-15.136719-33.863281-40h67.734375c-11.550782 24.863281-27.015625 40-33.871094 40zm-40.191406-56c-3.953125-11.9375-6.746094-25.382812-7.519532-40h95.414063c-.773437 14.617188-3.558594 28.0625-7.519531 40zm-63.402344-40h39.890625c.695313 14.070312 3.109375 27.558594 6.800781 40h-35.273437c-6.335938-12.136719-10.320313-25.664062-11.417969-40zm103.59375-112c6.855469 0 22.320312 15.136719 33.863281 40h-67.734375c11.550782-24.863281 27.015625-40 33.871094-40zm40.191406 56c3.953125 11.9375 6.746094 25.382812 7.519532 40h-95.414063c.773437-14.617188 3.558594-28.0625 7.519531-40zm-103.894531 40h-39.890625c1.097656-14.335938 5.082031-27.863281 11.425781-40h35.273438c-3.699219 12.441406-6.113281 25.929688-6.808594 40zm127.40625 16h39.890625c-1.097656 14.335938-5.082031 27.863281-11.425781 40h-35.273438c3.699219-12.441406 6.113281-25.929688 6.808594-40zm0-16c-.695313-14.070312-3.109375-27.558594-6.800781-40h35.273437c6.34375 12.136719 10.328125 25.664062 11.425781 40zm18.105469-56h-30.542969c-5.679687-13.886719-12.730469-25.960938-20.226563-35.265625 20.320313 6.371094 37.914063 18.875 50.769532 35.265625zm-112.847656-35.265625c-7.496094 9.304687-14.554688 21.378906-20.226563 35.265625h-30.542969c12.855469-16.390625 30.449219-28.894531 50.769532-35.265625zm-50.769532 163.265625h30.542969c5.679687 13.886719 12.730469 25.960938 20.226563 35.265625-20.320313-6.371094-37.914063-18.875-50.769532-35.265625zm112.847656 35.265625c7.496094-9.304687 14.554688-21.378906 20.226563-35.265625h30.542969c-12.855469 16.390625-30.449219 28.894531-50.769532 35.265625zm0 0"/><path d="m176 376h16v48h-16zm0 0"/><path d="m176 344h16v16h-16zm0 0"/></svg>