<svg width="25" height="30" viewBox="0 0 25 30" fill="none" xmlns="http://www.w3.org/2000/svg">
<path fill-rule="evenodd" clip-rule="evenodd" d="M8.12064 11.9765H6.40226L6.39963 6.0409L4.24024 0.939941H6.09917L7.19386 4.72941L8.27305 0.949764H10.152L8.12216 6.03746L8.12064 11.9765ZM10.2009 5.07695C10.0782 5.49528 10.016 6.07544 10.016 6.81883H10.0163V8.86916C10.0163 9.54814 10.0489 10.057 10.1179 10.3961C10.1858 10.7349 10.2983 11.0255 10.4597 11.2642C10.6185 11.5025 10.8421 11.6821 11.1308 11.8011C11.4184 11.9212 11.7685 11.9784 12.183 11.9784C12.5552 11.9784 12.8837 11.9103 13.1709 11.7704C13.4558 11.6325 13.6908 11.4162 13.8726 11.1267C14.0568 10.8345 14.1757 10.5227 14.2307 10.1862C14.2864 9.85042 14.3152 9.32222 14.3152 8.60384V6.64526C14.3152 6.07807 14.2856 5.6563 14.2242 5.37741C14.164 5.10197 14.0526 4.8326 13.8866 4.57073C13.7252 4.30966 13.4907 4.09862 13.1887 3.93569C12.8867 3.77387 12.5256 3.69093 12.1046 3.69093C11.6045 3.69093 11.1921 3.81781 10.8701 4.07209C10.548 4.32445 10.3245 4.65974 10.2009 5.07695ZM15.5337 11.1922C15.6175 11.3976 15.7482 11.5631 15.9266 11.6889C16.1013 11.8116 16.3264 11.8742 16.595 11.8742C16.8303 11.8742 17.039 11.8105 17.2202 11.6791C17.4017 11.5483 17.5548 11.3536 17.679 11.093L17.6479 11.7341H19.4686V3.99057H18.0352V10.0172C18.0352 10.3431 17.7658 10.6102 17.4372 10.6102C17.1109 10.6102 16.8407 10.3431 16.8407 10.0172V3.99057H15.3451V9.21316C15.3451 9.87857 15.3569 10.3222 15.3769 10.5473C15.3984 10.7708 15.4496 10.9849 15.5337 11.1922ZM24.1998 25.5041V17.19C24.1998 15.1957 22.4704 13.563 20.3562 13.563H4.55133C2.43629 13.563 0.707275 15.1953 0.707275 17.19V25.5041C0.707275 27.4983 2.43619 29.1303 4.55133 29.1303H20.3558C22.4705 29.1303 24.1998 27.4987 24.1998 25.5041ZM14.7751 19.6343C14.3837 19.6343 14.0624 19.8984 14.0624 20.2213V24.592C14.0624 24.9148 14.3837 25.1774 14.7751 25.1774C15.1696 25.1774 15.4909 24.9148 15.4909 24.592V20.2209C15.4909 19.8984 15.1696 19.6343 14.7751 19.6343ZM20.5797 21.5604H19.0314L19.039 20.6617C19.039 20.2619 19.3668 19.9357 19.768 19.9357H19.8673C20.2686 19.9357 20.5978 20.262 20.5978 20.6617L20.5797 21.5604ZM5.6051 26.4067L5.60439 17.6489L7.56338 17.6496V16.3515L2.34079 16.3435V17.6189L3.97128 17.6239V26.4067H5.6051ZM9.84469 18.9538H11.4778V26.4043L10.1664 26.4024L10.1695 25.437C9.81705 26.1937 8.40834 26.8026 7.67396 26.2725C7.32747 26.025 7.29609 25.6133 7.26681 25.2291C7.26269 25.175 7.25861 25.1215 7.25371 25.0691C7.23963 24.9118 7.24199 24.6315 7.24512 24.2583V24.2582V24.2582C7.2468 24.0595 7.24869 23.8346 7.24844 23.5878L7.24236 18.9534H8.86677L8.87436 23.6622C8.87463 23.9066 8.86977 24.1122 8.86579 24.28V24.2801L8.86579 24.2802V24.2802C8.85931 24.5538 8.85522 24.7268 8.87963 24.8038C9.11193 25.5121 9.7091 25.1271 9.84247 24.7644C9.86823 24.6927 9.86374 24.5412 9.85611 24.284V24.2839C9.85108 24.1145 9.84469 23.8991 9.84469 23.6304V18.9538ZM16.7038 24.309L16.7008 20.4164C16.6993 18.9325 15.5898 18.044 14.0825 19.2444L14.0893 16.3503L12.4573 16.3529L12.4493 26.3415L13.791 26.3217L13.913 25.6991C15.6284 27.274 16.7068 26.1956 16.7038 24.309ZM20.5914 23.7998L21.8168 23.7933C22.3749 27.1118 17.6889 27.6571 17.6879 23.7991V21.4783C17.6879 20.7818 17.7569 20.2343 17.8959 19.833C18.0346 19.4313 18.2714 19.1328 18.5821 18.9096C19.5718 18.1953 21.5301 18.4166 21.7305 19.8121C21.7942 20.2532 21.8142 21.0243 21.8142 21.7953V22.851H19.0095V23.8211V24.5736V24.6493C19.0095 25.015 19.3114 25.3128 19.6793 25.3128H19.9192C20.2864 25.3128 20.5884 25.015 20.5884 24.6493V23.9658C20.5887 23.9394 20.5893 23.9141 20.5899 23.8899C20.5907 23.8578 20.5914 23.8277 20.5914 23.7998ZM11.4415 9.89518C11.4415 10.3332 11.7684 10.6912 12.1659 10.6912C12.5634 10.6912 12.8881 10.3336 12.8881 9.89518V5.77265C12.8881 5.33468 12.5634 4.9766 12.1659 4.9766C11.7684 4.9766 11.4415 5.33427 11.4415 5.77265V9.89518Z" fill="#716F74"/>
</svg>
